<?xml version="1.0" encoding="UTF-8"?>
<svg version="1.1" xmlns="http://www.w3.org/2000/svg" width="500" height="500">
<path d="M0 0 C2.76991237 0.00536994 5.5396627 0.0000031 8.30957031 -0.00634766 C26.38206026 -0.01512342 44.32670438 0.67379583 62.27050781 2.88037109 C62.97832397 2.96518738 63.68614014 3.05000366 64.41540527 3.13739014 C102.07164802 7.66816546 102.07164802 7.66816546 114.77050781 12.13037109 C114.27181377 17.49928989 113.74823249 22.82272282 112.77050781 28.13037109 C113.88554687 28.23736328 115.00058594 28.34435547 116.14941406 28.45458984 C121.1726245 29.08566865 125.87830477 30.46048699 130.70800781 31.94287109 C131.55041016 32.19101562 132.3928125 32.43916016 133.26074219 32.69482422 C138.97849495 34.42467552 144.3705082 36.57935087 149.77050781 39.13037109 C149.77050781 39.79037109 149.77050781 40.45037109 149.77050781 41.13037109 C137.85644531 47.08740234 137.85644531 47.08740234 135.7578125 48.1328125 C133.95504367 49.03774044 132.16289252 49.96374408 130.37207031 50.89208984 C127.77050781 52.13037109 127.77050781 52.13037109 125.77050781 52.13037109 C128.36515492 60.48862165 130.95840892 68.84207962 133.77050781 77.13037109 C127.6922493 76.55446304 122.31522723 75.19518007 116.52050781 73.31787109 C107.16673846 70.39470851 97.77993466 68.3384693 88.1484375 66.57373047 C84.01387019 65.80285016 79.89269275 64.96455832 75.77050781 64.13037109 C75.77050781 63.47037109 75.77050781 62.81037109 75.77050781 62.13037109 C72.14050781 62.46037109 68.51050781 62.79037109 64.77050781 63.13037109 C64.84269531 62.28732422 64.91488281 61.44427734 64.98925781 60.57568359 C65.08207031 59.47998047 65.17488281 58.38427734 65.27050781 57.25537109 C65.36332031 56.16482422 65.45613281 55.07427734 65.55175781 53.95068359 C65.67613739 52.34707545 65.77050781 50.73879559 65.77050781 49.13037109 C28.78256563 44.15653396 -8.55387532 43.75631523 -45.72949219 47.06787109 C-46.59646729 47.14247559 -47.46344238 47.21708008 -48.35668945 47.29394531 C-52.91223535 47.7349355 -56.92523809 48.4603764 -61.22949219 50.13037109 C-60.89949219 50.46037109 -60.56949219 50.79037109 -60.22949219 51.13037109 C-59.76568559 55.12139828 -59.52481042 59.12248077 -59.22949219 63.13037109 C-63.18949219 62.80037109 -67.14949219 62.47037109 -71.22949219 62.13037109 C-71.55949219 63.12037109 -71.88949219 64.11037109 -72.22949219 65.13037109 C-73.37611328 65.29472656 -73.37611328 65.29472656 -74.54589844 65.46240234 C-88.5940578 67.54173279 -101.86593466 70.42940374 -115.37353516 74.79321289 C-116.3185791 75.09396729 -117.26362305 75.39472168 -118.23730469 75.70458984 C-119.50018311 76.11584106 -119.50018311 76.11584106 -120.78857422 76.53540039 C-123.35590931 77.16118511 -125.59729855 77.2375738 -128.22949219 77.13037109 C-125.79490948 68.71819506 -123.02805433 60.42650393 -120.22949219 52.13037109 C-121.02613281 51.89576172 -121.82277344 51.66115234 -122.64355469 51.41943359 C-127.1609299 49.79554054 -131.33379719 47.68499214 -135.60449219 45.50537109 C-136.4359375 45.08513672 -137.26738281 44.66490234 -138.12402344 44.23193359 C-140.16105577 43.20171034 -142.19611407 42.16778288 -144.22949219 41.13037109 C-144.22949219 40.14037109 -144.22949219 39.15037109 -144.22949219 38.13037109 C-140.24871205 36.85800888 -136.2651243 35.5949682 -132.27880859 34.34008789 C-130.9261334 33.9128849 -129.57422477 33.48324612 -128.22314453 33.05102539 C-114.40435003 28.63370934 -114.40435003 28.63370934 -107.22949219 28.13037109 C-107.37386719 27.47810547 -107.51824219 26.82583984 -107.66699219 26.15380859 C-107.85261719 25.27982422 -108.03824219 24.40583984 -108.22949219 23.50537109 C-108.41511719 22.64685547 -108.60074219 21.78833984 -108.79199219 20.90380859 C-109.25988836 17.93768104 -109.29982478 15.12829777 -109.22949219 12.13037109 C-89.69740583 6.58577884 -69.35237511 4.34904793 -49.22949219 2.13037109 C-48.56705505 2.05079163 -47.90461792 1.97121216 -47.22210693 1.88922119 C-41.66634518 1.2361827 -36.12943084 0.83302097 -30.54199219 0.57568359 C-29.18448853 0.5126152 -29.18448853 0.5126152 -27.79956055 0.44827271 C-18.53312578 0.0508691 -9.27382965 -0.02126275 0 0 Z M-106.22949219 31.13037109 C-105.22949219 34.13037109 -105.22949219 34.13037109 -105.22949219 34.13037109 Z M110.77050781 31.13037109 C111.77050781 33.13037109 111.77050781 33.13037109 111.77050781 33.13037109 Z M109.77050781 34.13037109 C109.77050781 35.78037109 109.77050781 37.43037109 109.77050781 39.13037109 C110.10050781 39.13037109 110.43050781 39.13037109 110.77050781 39.13037109 C110.77050781 37.48037109 110.77050781 35.83037109 110.77050781 34.13037109 C110.44050781 34.13037109 110.11050781 34.13037109 109.77050781 34.13037109 Z M-105.22949219 35.13037109 C-104.22949219 39.13037109 -104.22949219 39.13037109 -104.22949219 39.13037109 Z M-104.22949219 40.13037109 C-103.22949219 42.13037109 -103.22949219 42.13037109 -103.22949219 42.13037109 Z M108.77050781 40.13037109 C109.77050781 42.13037109 109.77050781 42.13037109 109.77050781 42.13037109 Z M107.77050781 43.13037109 C108.77050781 47.13037109 108.77050781 47.13037109 108.77050781 47.13037109 Z M-103.22949219 44.13037109 C-102.22949219 48.13037109 -102.22949219 48.13037109 -102.22949219 48.13037109 Z M106.77050781 48.13037109 C107.77050781 50.13037109 107.77050781 50.13037109 107.77050781 50.13037109 Z M-102.22949219 49.13037109 C-101.22949219 51.13037109 -101.22949219 51.13037109 -101.22949219 51.13037109 Z M-74.22949219 50.13037109 C-70.22949219 51.13037109 -70.22949219 51.13037109 -70.22949219 51.13037109 Z M75.77050781 50.13037109 C79.77050781 51.13037109 79.77050781 51.13037109 79.77050781 51.13037109 Z M-86.22949219 52.13037109 C-82.22949219 53.13037109 -82.22949219 53.13037109 -82.22949219 53.13037109 Z M86.77050781 52.13037109 C86.77050781 52.46037109 86.77050781 52.79037109 86.77050781 53.13037109 C88.42050781 53.13037109 90.07050781 53.13037109 91.77050781 53.13037109 C91.77050781 52.80037109 91.77050781 52.47037109 91.77050781 52.13037109 C90.12050781 52.13037109 88.47050781 52.13037109 86.77050781 52.13037109 Z M-101.22949219 53.13037109 C-100.89949219 54.45037109 -100.56949219 55.77037109 -100.22949219 57.13037109 C-98.57949219 56.80037109 -96.92949219 56.47037109 -95.22949219 56.13037109 C-95.22949219 55.80037109 -95.22949219 55.47037109 -95.22949219 55.13037109 C-96.87949219 55.13037109 -98.52949219 55.13037109 -100.22949219 55.13037109 C-100.55949219 54.47037109 -100.88949219 53.81037109 -101.22949219 53.13037109 Z M105.77050781 51.13037109 C105.77050781 52.45037109 105.77050781 53.77037109 105.77050781 55.13037109 C104.12050781 55.13037109 102.47050781 55.13037109 100.77050781 55.13037109 C100.77050781 55.79037109 100.77050781 56.45037109 100.77050781 57.13037109 C102.43662686 57.1730921 104.10433666 57.17100941 105.77050781 57.13037109 C107.06684402 56.06391994 107.06684402 56.06391994 106.83300781 53.56787109 C106.81238281 52.76349609 106.79175781 51.95912109 106.77050781 51.13037109 C106.44050781 51.13037109 106.11050781 51.13037109 105.77050781 51.13037109 Z M-91.22949219 58.13037109 C-87.22949219 59.13037109 -87.22949219 59.13037109 -87.22949219 59.13037109 Z M91.77050781 58.13037109 C91.77050781 58.46037109 91.77050781 58.79037109 91.77050781 59.13037109 C93.75050781 59.13037109 95.73050781 59.13037109 97.77050781 59.13037109 C97.77050781 58.80037109 97.77050781 58.47037109 97.77050781 58.13037109 C95.79050781 58.13037109 93.81050781 58.13037109 91.77050781 58.13037109 Z M-81.22949219 60.13037109 C-81.22949219 60.46037109 -81.22949219 60.79037109 -81.22949219 61.13037109 C-79.57949219 61.13037109 -77.92949219 61.13037109 -76.22949219 61.13037109 C-76.22949219 60.80037109 -76.22949219 60.47037109 -76.22949219 60.13037109 C-77.87949219 60.13037109 -79.52949219 60.13037109 -81.22949219 60.13037109 Z M81.77050781 60.13037109 C85.77050781 61.13037109 85.77050781 61.13037109 85.77050781 61.13037109 Z " fill="#E62826" transform="translate(247.2294921875,309.86962890625)"/>
<path d="M0 0 C3.59809297 2.15641225 6.48953861 4.63378689 9.25 7.8125 C9.806875 8.286875 10.36375 8.76125 10.9375 9.25 C12.84039606 11.51535245 13.43809375 14.0020553 14.25 16.8125 C15.9 16.8125 17.55 16.8125 19.25 16.8125 C19.58 15.4925 19.91 14.1725 20.25 12.8125 C22.725 12.3175 22.725 12.3175 25.25 11.8125 C25.58501526 12.46320465 25.92003052 13.1139093 26.26519775 13.78433228 C28.18491625 16.15921897 28.18491625 16.15921897 31.67669678 16.29110718 C33.12006412 16.30216897 34.5636979 16.29118836 36.00683594 16.26318359 C36.79582275 16.26388351 37.58480957 16.26458344 38.39770508 16.26530457 C40.11159513 16.26458703 41.82549952 16.2548581 43.53929901 16.23722458 C46.25541358 16.2107323 48.97036353 16.21063866 51.68658447 16.21792603 C59.40875491 16.23359418 67.13052236 16.19930719 74.85253906 16.15234375 C79.5764999 16.12544238 84.29976379 16.12766343 89.02375031 16.14680862 C90.82103736 16.14788865 92.61837055 16.13747381 94.41551971 16.11518478 C96.93632265 16.08403358 99.45468024 16.08971158 101.97558594 16.10302734 C102.71246643 16.08452225 103.44934692 16.06601715 104.20855713 16.04695129 C109.47291963 16.12934517 112.15484795 17.79495896 116.00964737 21.3296299 C117.25 22.8125 117.25 22.8125 117.25 24.8125 C118.57 25.1425 119.89 25.4725 121.25 25.8125 C120.94166157 28.93890823 120.15893301 29.90341647 117.88671875 32.171875 C116.91347656 32.96078125 115.94023437 33.7496875 114.9375 34.5625 C113.97199219 35.36171875 113.00648438 36.1609375 112.01171875 36.984375 C109.25 38.8125 109.25 38.8125 105.25 38.8125 C105.25 40.7925 105.25 42.7725 105.25 44.8125 C106.9 44.8125 108.55 44.8125 110.25 44.8125 C110.27685938 46.95826637 110.29633088 49.10412645 110.3125 51.25 C110.32410156 52.44496094 110.33570313 53.63992188 110.34765625 54.87109375 C110.25 57.8125 110.25 57.8125 109.25 58.8125 C107.60769636 58.9370486 105.95947724 58.98818524 104.3125 59 C103.41660156 59.01417969 102.52070313 59.02835937 101.59765625 59.04296875 C99.25 58.8125 99.25 58.8125 97.25 56.8125 C97.125 53.6875 97.125 53.6875 97.25 50.8125 C95.93 50.8125 94.61 50.8125 93.25 50.8125 C93.25 53.1225 93.25 55.4325 93.25 57.8125 C89.39854957 59.73822521 84.44956748 58.86133218 80.25 58.8125 C80.25 54.1925 80.25 49.5725 80.25 44.8125 C81.9 44.8125 83.55 44.8125 85.25 44.8125 C85.25 42.8325 85.25 40.8525 85.25 38.8125 C84.11111328 38.86470703 84.11111328 38.86470703 82.94921875 38.91796875 C81.95535156 38.94503906 80.96148437 38.97210938 79.9375 39 C78.95136719 39.03480469 77.96523438 39.06960938 76.94921875 39.10546875 C73.82714335 38.76660384 73.25249124 38.09161166 71.25 35.8125 C68.27927734 35.96103613 66.79267759 36.22459928 64.75 38.4375 C64.255 38.89125 63.76 39.345 63.25 39.8125 C60.23928361 39.66196418 58.72931185 39.22569987 56.4375 37.25 C56.045625 36.775625 55.65375 36.30125 55.25 35.8125 C51.87496331 36.9983237 49.60277269 38.08823689 47.25 40.8125 C42.58382789 39.17303412 42.58382789 39.17303412 40.6875 37.125 C40.213125 36.691875 39.73875 36.25875 39.25 35.8125 C36.2082904 36.09766028 34.85954198 37.07280535 32.25 38.8125 C30.93 38.8125 29.61 38.8125 28.25 38.8125 C27.59 40.4625 26.93 42.1125 26.25 43.8125 C24.6 43.8125 22.95 43.8125 21.25 43.8125 C20.26 41.8325 20.26 41.8325 19.25 39.8125 C17.6 39.8125 15.95 39.8125 14.25 39.8125 C13.96125 40.740625 13.6725 41.66875 13.375 42.625 C12.25 45.8125 12.25 45.8125 10.25 48.8125 C9.59 48.8125 8.93 48.8125 8.25 48.8125 C8.00765625 49.41835938 7.7653125 50.02421875 7.515625 50.6484375 C4.84306808 55.21817988 -1.01168758 57.03580722 -5.6875 59.125 C-14.39664702 61.08011464 -23.15585729 60.00773098 -30.9453125 55.55859375 C-38.62664614 50.19918416 -43.91773612 43.06393074 -45.75 33.8125 C-47.06235018 24.13027199 -44.11529737 15.86044605 -38.75 7.8125 C-38.09 7.8125 -37.43 7.8125 -36.75 7.8125 C-36.75 7.1525 -36.75 6.4925 -36.75 5.8125 C-34.95703125 4.375 -34.95703125 4.375 -32.5625 2.8125 C-31.78519531 2.296875 -31.00789062 1.78125 -30.20703125 1.25 C-21.56348004 -3.80695842 -9.13782487 -4.38284813 0 0 Z M-31.75 23.8125 C-33.00411568 27.17424137 -33.00411568 27.17424137 -32.75 30.8125 C-31.360911 33.86163936 -31.360911 33.86163936 -28.75 35.8125 C-24.92663624 36.54463349 -23.26228779 36.10205397 -19.875 34.1875 C-17.50867715 31.95543641 -17.50867715 31.95543641 -17.1875 28.8125 C-17.87509457 25.14532894 -18.75563584 23.99757655 -21.75 21.8125 C-25.98876925 20.18220413 -28.36398596 20.80270974 -31.75 23.8125 Z " fill="#E52926" transform="translate(211.75,242.1875)"/>
<path d="M0 0 C2.5653101 1.23122475 4.75237392 2.58405278 7.06567383 4.23608398 C8.30220703 5.11200195 8.30220703 5.11200195 9.5637207 6.00561523 C10.42932617 6.6256543 11.29493164 7.24569336 12.18676758 7.88452148 C13.99985412 9.16938596 15.81365208 10.45324715 17.62817383 11.73608398 C18.49716309 12.35128906 19.36615234 12.96649414 20.26147461 13.6003418 C23.01776743 15.53584149 25.80963021 17.41001802 28.62426758 19.25952148 C34.98732608 23.45005002 41.20291956 27.84836027 47.42114258 32.24975586 C51.92560099 35.4249714 56.44734645 38.44525246 61.21704102 41.20996094 C61.68142578 41.55631592 62.14581055 41.9026709 62.62426758 42.25952148 C62.62426758 42.91952148 62.62426758 43.57952148 62.62426758 44.25952148 C63.32535645 44.51008301 64.02644531 44.76064453 64.7487793 45.01879883 C67.98604508 46.41562212 70.70180677 48.14981278 73.63208008 50.11108398 C74.19821014 50.48880951 74.76434021 50.86653503 75.34762573 51.25570679 C76.54416897 52.05540964 77.73922201 52.85734615 78.93286133 53.66137695 C80.71979334 54.86467391 82.51138732 56.06073485 84.30395508 57.25561523 C89.91532054 61.00681237 95.48534885 64.81625742 100.99145508 68.72045898 C101.88719238 69.35516113 102.78292969 69.98986328 103.70581055 70.64379883 C104.33890137 71.1769873 104.97199219 71.71017578 105.62426758 72.25952148 C105.62426758 72.91952148 105.62426758 73.57952148 105.62426758 74.25952148 C100.90846799 73.6914615 97.32601485 71.57065909 93.31176758 69.19702148 C87.88750335 66.06656005 82.43310608 63.08352967 76.81176758 60.32202148 C70.82157523 57.37556267 64.89787303 54.32292389 58.99926758 51.19702148 C53.56986301 48.32180285 48.12969053 45.48656665 42.62426758 42.75952148 C37.10430228 40.02208245 31.63787832 37.19407715 26.18676758 34.32202148 C25.38424561 33.89928955 24.58172363 33.47655762 23.75488281 33.04101562 C19.8990441 31.00478619 16.05154934 28.95464958 12.21801758 26.87670898 C11.53537842 26.50795654 10.85273926 26.1392041 10.14941406 25.75927734 C8.87850574 25.07141541 7.60964103 24.37975856 6.34326172 23.68359375 C3.46877405 22.12830156 0.87275387 20.72558505 -2.37573242 20.25952148 C-4.27721554 20.89694174 -4.27721554 20.89694174 -6.10620117 22.06811523 C-6.81824707 22.48150146 -7.53029297 22.8948877 -8.26391602 23.32080078 C-9.02269043 23.77495361 -9.78146484 24.22910645 -10.56323242 24.69702148 C-16.68220031 28.2393526 -22.81408788 31.52000971 -29.25073242 34.44702148 C-35.15518951 37.14813939 -40.72999331 40.12791842 -46.29760742 43.48217773 C-50.51836782 45.91929192 -54.86775001 48.05460039 -59.23876953 50.20654297 C-63.87435185 52.49376804 -68.45084414 54.86902275 -73.00073242 57.32202148 C-80.05389332 61.11838488 -87.19615954 64.70699926 -94.37573242 68.25952148 C-96.66790431 69.40434383 -98.9596032 70.55011389 -101.25073242 71.69702148 C-102.95906576 72.55118815 -104.66739909 73.40535482 -106.37573242 74.25952148 C-107.03573242 73.59952148 -107.69573242 72.93952148 -108.37573242 72.25952148 C-101.15120137 67.15220519 -93.85231044 62.15639208 -86.54711914 57.16552734 C-80.89212134 53.30078017 -75.25318492 49.41428445 -69.62573242 45.50952148 C-65.18631332 42.43607749 -60.73492496 39.3801356 -56.28125 36.32739258 C-52.72564535 33.88702806 -49.18543285 31.42651133 -45.65698242 28.94702148 C-38.73689791 24.09616823 -31.73610506 19.36391506 -24.73217773 14.63525391 C-17.8149499 9.95760698 -17.8149499 9.95760698 -11.03588867 5.08374023 C-10.1441394 4.42994385 -10.1441394 4.42994385 -9.234375 3.76293945 C-7.75526017 2.66791408 -6.29126967 1.55253667 -4.82885742 0.43530273 C-2.37573242 -0.74047852 -2.37573242 -0.74047852 0 0 Z " fill="#E02F2B" transform="translate(251.375732421875,186.740478515625)"/>
<path d="M0 0 C7.91345114 2.45589863 15.41934744 5.67318443 23 9 C24.32953125 9.57991087 25.65920463 10.15949597 26.98901367 10.73876953 C36.47832356 14.8768034 45.94751424 19.06058458 55.41552734 23.24707031 C61.95022212 26.12705451 68.52292273 28.88733401 75.14208984 31.56640625 C82.89777382 34.72962976 90.50836924 38.25418462 98 42 C95.97175607 46.68051506 92.88810466 48.55243979 88.75 51.3125 C88.09386719 51.77978516 87.43773437 52.24707031 86.76171875 52.72851562 C83.70486125 54.78566526 81.836593 56.00337336 78.09375 55.98828125 C77.0728125 55.66214844 76.051875 55.33601563 75 55 C74.32356445 54.78738525 73.64712891 54.57477051 72.95019531 54.35571289 C70.53306526 53.57219184 68.14239066 52.73100995 65.75 51.875 C64.86957031 51.56369141 63.98914063 51.25238281 63.08203125 50.93164062 C56.60652036 48.62293983 50.1906631 46.17962823 43.80957031 43.62207031 C39.83653741 42.04441379 35.85871022 40.60690433 31.78125 39.3203125 C19.15715302 35.3051919 9.8628848 30.83761061 2.9375 18.921875 C0.85767736 14.65823858 -0.2959589 10.99984282 -0.6875 6.25 C-0.77386719 5.28578125 -0.86023438 4.3215625 -0.94921875 3.328125 C-0.96597656 2.55984375 -0.98273438 1.7915625 -1 1 C-0.67 0.67 -0.34 0.34 0 0 Z " fill="#E32D2A" transform="translate(110,169)"/>
<path d="M0 0 C1.92971193 5.7891358 -0.15163952 12.66162152 -2.625 18.125 C-8.72522091 29.14621697 -17.45806118 34.32613274 -28.9375 38.375 C-30.63951174 38.98775702 -32.34133205 39.60104601 -34.04296875 40.21484375 C-34.8839209 40.51632324 -35.72487305 40.81780273 -36.59130859 41.12841797 C-39.36481402 42.13200751 -42.12226144 43.17349843 -44.87792969 44.22485352 C-48.24353863 45.50604972 -51.62102574 46.75455608 -55 48 C-55.94085449 48.34804687 -56.88170898 48.69609375 -57.85107422 49.0546875 C-60.95823476 50.19655546 -64.07187226 51.31896333 -67.1875 52.4375 C-68.18040039 52.80415771 -69.17330078 53.17081543 -70.19628906 53.54858398 C-71.13569336 53.88188721 -72.07509766 54.21519043 -73.04296875 54.55859375 C-73.87852295 54.86079834 -74.71407715 55.16300293 -75.57495117 55.47436523 C-79.18724775 56.25733861 -81.75713508 55.71794369 -84.94458008 53.87670898 C-85.54681396 53.42110596 -86.14904785 52.96550293 -86.76953125 52.49609375 C-87.76049805 51.75649414 -87.76049805 51.75649414 -88.77148438 51.00195312 C-89.44501953 50.48568359 -90.11855469 49.96941406 -90.8125 49.4375 C-91.50537109 48.91736328 -92.19824219 48.39722656 -92.91210938 47.86132812 C-94.61395663 46.58200846 -96.30778964 45.29203986 -98 44 C-97.67 43.01 -97.34 42.02 -97 41 C-94.78902799 39.94600239 -92.66993401 39.07727015 -90.375 38.25 C-84.9699062 36.20300858 -79.71008241 34.00227416 -74.5 31.5 C-69.56342894 29.14311896 -64.59407745 26.99248131 -59.5 25 C-54.63171117 23.09484312 -49.89792561 21.05902978 -45.17578125 18.80859375 C-37.20225527 15.04623561 -29.13018004 11.5304282 -21.0246582 8.06323242 C-18.64275971 7.04334295 -16.26373786 6.01692829 -13.88476562 4.99023438 C-12.36475055 4.33815173 -10.84457455 3.68644407 -9.32421875 3.03515625 C-8.61601486 2.72900894 -7.90781097 2.42286163 -7.17814636 2.10743713 C-2.22928192 0 -2.22928192 0 0 0 Z " fill="#E22B29" transform="translate(390,169)"/>
<path d="M0 0 C2.4375 0.25 2.4375 0.25 5 1 C5.66 1.99 6.32 2.98 7 4 C9.62568385 4.28457197 12.01679023 4.3752675 14.64331055 4.3371582 C15.43215134 4.3377121 16.22099213 4.33826599 17.03373718 4.33883667 C18.7503605 4.33857635 20.46699246 4.33167545 22.18356895 4.31899452 C24.90369571 4.30066686 27.62304989 4.30326964 30.34321594 4.3120575 C38.07813283 4.33390242 45.812758 4.32301879 53.54760742 4.28491211 C58.27693697 4.26308461 63.00550924 4.27038595 67.73481178 4.2953701 C69.53487245 4.29895851 71.33499271 4.29132842 73.13495445 4.27211952 C75.66071867 4.24570205 78.18393627 4.25625688 80.7097168 4.2746582 C81.44816833 4.25772415 82.18661987 4.2407901 82.94744873 4.2233429 C88.21433299 4.31653042 90.90278005 5.98068891 94.76020527 9.5176878 C96 11 96 11 96 13 C97.32 13.33 98.64 13.66 100 14 C99.69166157 17.12640823 98.90893301 18.09091647 96.63671875 20.359375 C95.66347656 21.14828125 94.69023437 21.9371875 93.6875 22.75 C92.72199219 23.54921875 91.75648438 24.3484375 90.76171875 25.171875 C88 27 88 27 84 27 C84 28.98 84 30.96 84 33 C85.65 33 87.3 33 89 33 C89.02685938 35.14576637 89.04633088 37.29162645 89.0625 39.4375 C89.07410156 40.63246094 89.08570313 41.82742188 89.09765625 43.05859375 C89 46 89 46 88 47 C86.35769636 47.1245486 84.70947724 47.17568524 83.0625 47.1875 C82.16660156 47.20167969 81.27070313 47.21585937 80.34765625 47.23046875 C78 47 78 47 76 45 C75.875 41.875 75.875 41.875 76 39 C74.68 39 73.36 39 72 39 C72 41.31 72 43.62 72 46 C68.14854957 47.92572521 63.19956748 47.04883218 59 47 C59 42.38 59 37.76 59 33 C60.65 33 62.3 33 64 33 C64 31.02 64 29.04 64 27 C63.24074219 27.03480469 62.48148437 27.06960938 61.69921875 27.10546875 C60.70535156 27.13253906 59.71148437 27.15960938 58.6875 27.1875 C57.70136719 27.22230469 56.71523438 27.25710938 55.69921875 27.29296875 C52.57714335 26.95410384 52.00249124 26.27911166 50 24 C47.02927734 24.14853613 45.54267759 24.41209928 43.5 26.625 C43.005 27.07875 42.51 27.5325 42 28 C38.98928361 27.84946418 37.47931185 27.41319987 35.1875 25.4375 C34.795625 24.963125 34.40375 24.48875 34 24 C30.62496331 25.1858237 28.35277269 26.27573689 26 29 C21.33382789 27.36053412 21.33382789 27.36053412 19.4375 25.3125 C18.963125 24.879375 18.48875 24.44625 18 24 C14.9582904 24.28516028 13.60954198 25.26030535 11 27 C9.68 27 8.36 27 7 27 C6.01 29.475 6.01 29.475 5 32 C3.35 32 1.7 32 0 32 C-0.66 30.68 -1.32 29.36 -2 28 C-3.65 28 -5.3 28 -7 28 C-7 27.67 -7 27.34 -7 27 C-5.02 27 -3.04 27 -1 27 C-1 27.66 -1 28.32 -1 29 C0.65 29 2.3 29 4 29 C4.33 27.68 4.66 26.36 5 25 C6.98 24.67 8.96 24.34 11 24 C11 23.34 11 22.68 11 22 C13.97 21.67 16.94 21.34 20 21 C20 21.99 20 22.98 20 24 C21.65 24.33 23.3 24.66 25 25 C25.33 23.68 25.66 22.36 26 21 C26.5775 21.165 27.155 21.33 27.75 21.5 C30.26664369 22.14462031 30.26664369 22.14462031 34 22 C34 20.35 34 18.7 34 17 C24.43 16.67 14.86 16.34 5 16 C4.67 14.68 4.34 13.36 4 12 C7.1623205 10.41883975 10.55841707 10.87062878 14.02978516 10.88647461 C14.85913071 10.88632858 15.68847626 10.88618256 16.54295349 10.8860321 C19.29168285 10.88673029 22.04034494 10.89451829 24.7890625 10.90234375 C26.69192467 10.90420826 28.59478732 10.90563201 30.49765015 10.90663147 C35.51181356 10.91045401 40.52594811 10.92028207 45.5401001 10.93133545 C50.65433359 10.94155521 55.76857174 10.9461303 60.8828125 10.95117188 C70.92188769 10.96190455 80.96094145 10.97897784 91 11 C91 10.34 91 9.68 91 9 C62.29 8.34 33.58 7.68 4 7 C4 5.68 4 4.36 4 3 C2.68 3 1.36 3 0 3 C0 4.32 0 5.64 0 7 C-2.64 7 -5.28 7 -8 7 C-7.67 5.68 -7.34 4.36 -7 3 C-7 3.66 -7 4.32 -7 5 C-5.35 5 -3.7 5 -2 5 C-1.855625 4.360625 -1.71125 3.72125 -1.5625 3.0625 C-1 1 -1 1 0 0 Z " fill="#E42A26" transform="translate(233,254)"/>
<path d="M0 0 C0.66 1.32 1.32 2.64 2 4 C2.99 4 3.98 4 5 4 C5 6.97 5 9.94 5 13 C5.66 13 6.32 13 7 13 C6.91621094 13.61488281 6.83242187 14.22976563 6.74609375 14.86328125 C6.64425781 15.67152344 6.54242188 16.47976563 6.4375 17.3125 C6.33308594 18.11300781 6.22867188 18.91351563 6.12109375 19.73828125 C5.85244822 22.16817116 5.85244822 22.16817116 7 25 C7 25.99 7 26.98 7 28 C9.97 28.33 12.94 28.66 16 29 C16 29.66 16 30.32 16 31 C17.299375 30.814375 18.59875 30.62875 19.9375 30.4375 C22.15234375 30.12109375 22.15234375 30.12109375 24 30 C24.33 30.33 24.66 30.66 25 31 C27.97795447 31.07307864 30.94381197 30.99618104 33.921875 30.9375 C36.75855619 30.99509759 39.24686735 31.34740559 42 32 C42.11320856 26.91696314 42.11320856 26.91696314 41 22 C42.66611905 21.957279 44.33382885 21.95936168 46 22 C48.46089912 24.46089912 47.77662328 31.96845878 48 35 C44.04 34.67 40.08 34.34 36 34 C35.67 34.99 35.34 35.98 35 37 C34.23558594 37.10957031 33.47117187 37.21914063 32.68359375 37.33203125 C18.63543439 39.4113617 5.36355753 42.29903264 -8.14404297 46.6628418 C-9.08908691 46.96359619 -10.03413086 47.26435059 -11.0078125 47.57421875 C-11.84973145 47.84838623 -12.69165039 48.12255371 -13.55908203 48.4050293 C-16.12641712 49.03081401 -18.36780636 49.10720271 -21 49 C-18.56541729 40.58782396 -15.79856214 32.29613284 -13 24 C-13.79664062 23.76539063 -14.59328125 23.53078125 -15.4140625 23.2890625 C-19.93143771 21.66516945 -24.10430501 19.55462105 -28.375 17.375 C-29.20644531 16.95476562 -30.03789063 16.53453125 -30.89453125 16.1015625 C-32.93156359 15.07133925 -34.96662189 14.03741179 -37 13 C-37 12.01 -37 11.02 -37 10 C-32.94363827 8.73514989 -28.88682421 7.47176418 -24.82958984 6.2097168 C-23.45023361 5.78042901 -22.07100044 5.35074557 -20.69189453 4.9206543 C-18.70637945 4.30152288 -16.72042204 3.68382882 -14.734375 3.06640625 C-13.54038086 2.69459229 -12.34638672 2.32277832 -11.11621094 1.93969727 C-7.09520509 0.72715798 -4.23578046 0 0 0 Z M2 7 C3 11 3 11 3 11 Z M3 12 C4 14 4 14 4 14 Z M4 16 C5 20 5 20 5 20 Z M26 32 C26 32.33 26 32.66 26 33 C27.65 33 29.3 33 31 33 C31 32.67 31 32.34 31 32 C29.35 32 27.7 32 26 32 Z " fill="#E32C28" transform="translate(140,338)"/>
<path d="M0 0 C0.66 0 1.32 0 2 0 C2 1.32 2 2.64 2 4 C3.11503906 4.10699219 4.23007812 4.21398437 5.37890625 4.32421875 C10.40211669 4.95529755 15.10779696 6.3301159 19.9375 7.8125 C20.77990234 8.06064453 21.62230469 8.30878906 22.49023438 8.56445312 C28.20798713 10.29430442 33.60000038 12.44897977 39 15 C39 15.66 39 16.32 39 17 C27.0859375 22.95703125 27.0859375 22.95703125 24.98730469 24.00244141 C23.18453586 24.90736935 21.39238471 25.83337298 19.6015625 26.76171875 C17 28 17 28 15 28 C17.59464711 36.35825056 20.18790111 44.71170852 23 53 C16.92174148 52.42409194 11.54471942 51.06480898 5.75 49.1875 C-3.60376935 46.26433741 -12.99057315 44.20809821 -22.62207031 42.44335938 C-26.75663762 41.67247906 -30.87781507 40.83418723 -35 40 C-33.3125 38 -33.3125 38 -31 36 C-28.5 35.875 -28.5 35.875 -26 36 C-25.07574219 35.51080078 -25.07574219 35.51080078 -24.1328125 35.01171875 C-21.66368984 33.84046826 -20.08525088 33.8241952 -17.375 33.9375 C-14.05753853 34.11438333 -14.05753853 34.11438333 -11 33 C-12.65 32.34 -14.3 31.68 -16 31 C-15.67 30.34 -15.34 29.68 -15 29 C-12.03 29 -9.06 29 -6 29 C-6.020625 27.906875 -6.04125 26.81375 -6.0625 25.6875 C-6 22 -6 22 -5 19 C-4.34 19 -3.68 19 -3 19 C-2.86722656 17.87980469 -2.73445313 16.75960938 -2.59765625 15.60546875 C-2.41943431 14.13279271 -2.24103989 12.66013753 -2.0625 11.1875 C-1.97548828 10.44951172 -1.88847656 9.71152344 -1.79882812 8.95117188 C-1.41783454 5.83266879 -0.99630626 2.98891878 0 0 Z M0 7 C1 9 1 9 1 9 Z M-1 10 C-1 11.65 -1 13.3 -1 15 C-0.67 15 -0.34 15 0 15 C0 13.35 0 11.7 0 10 C-0.33 10 -0.66 10 -1 10 Z M-2 16 C-1 18 -1 18 -1 18 Z M-3 19 C-2 23 -2 23 -2 23 Z M-4 24 C-3 26 -3 26 -3 26 Z M-5 27 C-5 28.32 -5 29.64 -5 31 C-6.65 31 -8.3 31 -10 31 C-10 31.66 -10 32.32 -10 33 C-8.33388095 33.042721 -6.66617115 33.04063832 -5 33 C-3.70366379 31.93354885 -3.70366379 31.93354885 -3.9375 29.4375 C-3.958125 28.633125 -3.97875 27.82875 -4 27 C-4.33 27 -4.66 27 -5 27 Z " fill="#E22D2A" transform="translate(358,334)"/>
<path d="M0 0 C2.4375 0.25 2.4375 0.25 5 1 C5.66 1.99 6.32 2.98 7 4 C9.62568385 4.28457197 12.01679023 4.3752675 14.64331055 4.3371582 C15.43215134 4.3377121 16.22099213 4.33826599 17.03373718 4.33883667 C18.7503605 4.33857635 20.46699246 4.33167545 22.18356895 4.31899452 C24.90369571 4.30066686 27.62304989 4.30326964 30.34321594 4.3120575 C38.07813283 4.33390242 45.812758 4.32301879 53.54760742 4.28491211 C58.27693697 4.26308461 63.00550924 4.27038595 67.73481178 4.2953701 C69.53487245 4.29895851 71.33499271 4.29132842 73.13495445 4.27211952 C75.66071867 4.24570205 78.18393627 4.25625688 80.7097168 4.2746582 C81.44816833 4.25772415 82.18661987 4.2407901 82.94744873 4.2233429 C88.21433299 4.31653042 90.90278005 5.98068891 94.76020527 9.5176878 C96 11 96 11 96 13 C97.32 13.33 98.64 13.66 100 14 C99.75 15.875 99.75 15.875 99 18 C96.9375 19.25 96.9375 19.25 95 20 C95 19.01 95 18.02 95 17 C77.84 16.67 60.68 16.34 43 16 C43.495 17.485 43.495 17.485 44 19 C43.505 20.485 43.505 20.485 43 22 C43.53625 21.835 44.0725 21.67 44.625 21.5 C47.45886009 20.90339788 50.1119806 20.9343632 53 21 C53 22.65 53 24.3 53 26 C52.01 25.34 51.02 24.68 50 24 C47.05707273 24.22071955 45.5308975 24.42486104 43.5 26.625 C43.005 27.07875 42.51 27.5325 42 28 C38.98928361 27.84946418 37.47931185 27.41319987 35.1875 25.4375 C34.795625 24.963125 34.40375 24.48875 34 24 C30.62496331 25.1858237 28.35277269 26.27573689 26 29 C21.33382789 27.36053412 21.33382789 27.36053412 19.4375 25.3125 C18.963125 24.879375 18.48875 24.44625 18 24 C14.9582904 24.28516028 13.60954198 25.26030535 11 27 C9.68 27 8.36 27 7 27 C6.01 29.475 6.01 29.475 5 32 C3.35 32 1.7 32 0 32 C-0.66 30.68 -1.32 29.36 -2 28 C-3.65 28 -5.3 28 -7 28 C-7 27.67 -7 27.34 -7 27 C-5.02 27 -3.04 27 -1 27 C-1 27.66 -1 28.32 -1 29 C0.65 29 2.3 29 4 29 C4.33 27.68 4.66 26.36 5 25 C6.98 24.67 8.96 24.34 11 24 C11 23.34 11 22.68 11 22 C13.97 21.67 16.94 21.34 20 21 C20 21.99 20 22.98 20 24 C21.65 24.33 23.3 24.66 25 25 C25.33 23.68 25.66 22.36 26 21 C26.5775 21.165 27.155 21.33 27.75 21.5 C30.26664369 22.14462031 30.26664369 22.14462031 34 22 C34 20.35 34 18.7 34 17 C24.43 16.67 14.86 16.34 5 16 C4.67 14.68 4.34 13.36 4 12 C7.1623205 10.41883975 10.55841707 10.87062878 14.02978516 10.88647461 C14.85913071 10.88632858 15.68847626 10.88618256 16.54295349 10.8860321 C19.29168285 10.88673029 22.04034494 10.89451829 24.7890625 10.90234375 C26.69192467 10.90420826 28.59478732 10.90563201 30.49765015 10.90663147 C35.51181356 10.91045401 40.52594811 10.92028207 45.5401001 10.93133545 C50.65433359 10.94155521 55.76857174 10.9461303 60.8828125 10.95117188 C70.92188769 10.96190455 80.96094145 10.97897784 91 11 C91 10.34 91 9.68 91 9 C62.29 8.34 33.58 7.68 4 7 C4 5.68 4 4.36 4 3 C2.68 3 1.36 3 0 3 C0 4.32 0 5.64 0 7 C-2.64 7 -5.28 7 -8 7 C-7.67 5.68 -7.34 4.36 -7 3 C-7 3.66 -7 4.32 -7 5 C-5.35 5 -3.7 5 -2 5 C-1.855625 4.360625 -1.71125 3.72125 -1.5625 3.0625 C-1 1 -1 1 0 0 Z " fill="#BF3736" transform="translate(233,254)"/>
<path d="M0 0 C-0.34134268 6.37173005 -1.78869556 11.06713249 -6 16 C-6.66 16 -7.32 16 -8 16 C-8 16.66 -8 17.32 -8 18 C-13.79533731 21.77220843 -19.33402306 23.3187922 -26.0625 24.75 C-27.02994141 24.97042969 -27.99738281 25.19085938 -28.99414062 25.41796875 C-41.02951033 28.07052799 -41.02951033 28.07052799 -46.4296875 25.13671875 C-47.58834132 24.33487764 -48.73673075 23.51802451 -49.875 22.6875 C-50.46796875 22.28337891 -51.0609375 21.87925781 -51.671875 21.46289062 C-53.3671875 20.26171875 -53.3671875 20.26171875 -56 18 C-56 17.01 -56 16.02 -56 15 C-48.9946595 13.04121295 -41.98855242 11.08519408 -34.98144722 9.13272858 C-31.72797055 8.22608296 -28.47476798 7.31847751 -25.22216797 6.40869141 C-21.48471782 5.36379758 -17.7463643 4.32219431 -14.0078125 3.28125 C-12.25152023 2.78908997 -12.25152023 2.78908997 -10.45974731 2.2869873 C-9.37877777 1.98667603 -8.29780823 1.68636475 -7.18408203 1.37695312 C-6.22921906 1.11047974 -5.27435608 0.84400635 -4.29055786 0.56945801 C-2 0 -2 0 0 0 Z " fill="#DF2E2B" transform="translate(369,210)"/>
<path d="M0 0 C1.94236228 0.40075617 3.86692358 0.88785718 5.78125 1.40625 C7.61695557 1.89931641 7.61695557 1.89931641 9.48974609 2.40234375 C10.82655175 2.76803052 12.1633019 3.13392027 13.5 3.5 C14.85357209 3.86627846 16.20725138 4.23216098 17.56103516 4.59765625 C30.06353247 7.98220886 42.53861819 11.46732371 55 15 C55 15.99 55 16.98 55 18 C53.01018172 19.7324884 51.09958794 21.20269262 48.9375 22.6875 C48.37611328 23.10322266 47.81472656 23.51894531 47.23632812 23.94726562 C42.15700223 27.48247644 38.55003254 27.6212647 32.59350586 26.57885742 C29.8787211 26.02862805 27.1922696 25.40117129 24.5 24.75 C23.58863281 24.54503906 22.67726562 24.34007812 21.73828125 24.12890625 C16.18797972 22.80740589 11.80314534 21.08773629 7 18 C7 17.34 7 16.68 7 16 C6.34 16 5.68 16 5 16 C1.17987196 11.4182265 -0.75805484 6.92765639 -1 1 C-0.67 0.67 -0.34 0.34 0 0 Z " fill="#E22D29" transform="translate(132,210)"/>
<path d="M0 0 C0.495 0.99 0.495 0.99 1 2 C0 4 0 4 -3 6 C-3.66 6.99 -4.32 7.98 -5 9 C-4.01 9.66 -3.02 10.32 -2 11 C-1.46890625 10.71125 -0.9378125 10.4225 -0.390625 10.125 C0.31578125 9.75375 1.0221875 9.3825 1.75 9 C2.79414063 8.443125 2.79414063 8.443125 3.859375 7.875 C6 7 6 7 10 7 C9.505 5.515 9.505 5.515 9 4 C9.66 4 10.32 4 11 4 C11 4.66 11 5.32 11 6 C11.99 6.495 11.99 6.495 13 7 C12.06542969 7.46148437 11.13085938 7.92296875 10.16796875 8.3984375 C-2.1668384 14.5140677 -14.33985031 20.92149698 -26.4921875 27.390625 C-35.26741486 32.05842463 -44.09037306 36.5924107 -53 41 C-55.292173 42.14482011 -57.58386952 43.29059492 -59.875 44.4375 C-61.58333333 45.29166667 -63.29166667 46.14583333 -65 47 C-65.66 46.34 -66.32 45.68 -67 45 C-59.77546895 39.89268371 -52.47657802 34.89687059 -45.17138672 29.90600586 C-39.52176358 26.04493184 -33.88848415 22.16167618 -28.265625 18.26171875 C-24.36941311 15.56326578 -20.46705462 12.87386215 -16.5625 10.1875 C-15.56827026 9.50276611 -15.56827026 9.50276611 -14.55395508 8.80419922 C-12.70493151 7.53274636 -10.85262815 6.26619205 -9 5 C-7.91589844 4.25363281 -6.83179688 3.50726563 -5.71484375 2.73828125 C-3 1 -3 1 0 0 Z " fill="#D72F2A" transform="translate(210,214)"/>
<path d="M0 0 C6.45969976 4.04038255 12.80125704 8.19097703 19.00390625 12.6171875 C20.94436105 14.03123198 20.94436105 14.03123198 23 15 C23 15.66 23 16.32 23 17 C24.0516333 17.37584229 24.0516333 17.37584229 25.12451172 17.75927734 C28.3617775 19.15610063 31.07753919 20.89029129 34.0078125 22.8515625 C34.57394257 23.22928802 35.14007263 23.60701355 35.72335815 23.9961853 C36.91990139 24.79588815 38.11495443 25.59782466 39.30859375 26.40185547 C41.09552576 27.60515243 42.88711974 28.80121337 44.6796875 29.99609375 C50.29105297 33.74729088 55.86108127 37.55673594 61.3671875 41.4609375 C62.2629248 42.09563965 63.15866211 42.7303418 64.08154297 43.38427734 C64.71463379 43.91746582 65.34772461 44.4506543 66 45 C66 45.66 66 46.32 66 47 C61.28420041 46.43194001 57.70174728 44.3111376 53.6875 41.9375 C48.26323578 38.80703856 42.8088385 35.82400818 37.1875 33.0625 C31.19731306 30.11604385 25.2735017 27.06359409 19.375 23.9375 C12.59336302 20.34363644 5.77390174 16.85178073 -1.1171875 13.47265625 C-3.82433009 12.08973924 -6.41499774 10.59774125 -9 9 C-8.67 8.34 -8.34 7.68 -8 7 C-6.35 7 -4.7 7 -3 7 C-2.67 7.99 -2.34 8.98 -2 10 C-1.01 10 -0.02 10 1 10 C1.33 10.66 1.66 11.32 2 12 C4.02463255 12.65213292 4.02463255 12.65213292 6 13 C5.814375 12.38125 5.62875 11.7625 5.4375 11.125 C5 9 5 9 6 7 C4.68 7.33 3.36 7.66 2 8 C1.33333333 5.33333333 0.66666667 2.66666667 0 0 Z " fill="#D63735" transform="translate(291,214)"/>
<path d="M0 0 C1.18239258 0.01353516 1.18239258 0.01353516 2.38867188 0.02734375 C4.32174666 0.05077496 6.2546638 0.08664162 8.1875 0.125 C8.1875 0.785 8.1875 1.445 8.1875 2.125 C7.18589844 2.17398438 6.18429688 2.22296875 5.15234375 2.2734375 C3.80987241 2.34854079 2.4674257 2.42408526 1.125 2.5 C-0.18597656 2.56960937 -1.49695313 2.63921875 -2.84765625 2.7109375 C-6.83728492 3.12758838 -10.04715447 3.79154005 -13.8125 5.125 C-14.1425 5.785 -14.4725 6.445 -14.8125 7.125 C-15.8025 7.125 -16.7925 7.125 -17.8125 7.125 C-17.8125 7.785 -17.8125 8.445 -17.8125 9.125 C-18.8025 9.455 -19.7925 9.785 -20.8125 10.125 C-20.88904536 14.64117599 -20.91478696 18.71585217 -19.8125 23.125 C-17.8325 22.795 -15.8525 22.465 -13.8125 22.125 C-13.4825 22.785 -13.1525 23.445 -12.8125 24.125 C-13.451875 24.310625 -14.09125 24.49625 -14.75 24.6875 C-17.15421945 26.04857578 -17.15421945 26.04857578 -17.8125 29.375 C-17.8125 33.883007 -16.59479901 35.66820426 -13.8125 39.125 C-15.5140625 39.310625 -15.5140625 39.310625 -17.25 39.5 C-18.425625 39.70625 -19.60125 39.9125 -20.8125 40.125 C-21.1425 40.785 -21.4725 41.445 -21.8125 42.125 C-21.1525 42.455 -20.4925 42.785 -19.8125 43.125 C-20.121875 43.723125 -20.43125 44.32125 -20.75 44.9375 C-21.91459704 47.21456772 -21.91459704 47.21456772 -22.8125 50.125 C-22.1525 50.125 -21.4925 50.125 -20.8125 50.125 C-20.8125 50.785 -20.8125 51.445 -20.8125 52.125 C-20.173125 52.41375 -19.53375 52.7025 -18.875 53 C-16.8125 54.125 -16.8125 54.125 -15.8125 56.125 C-13.28516765 56.78055119 -13.28516765 56.78055119 -10.8125 57.125 C-10.8125 58.115 -10.8125 59.105 -10.8125 60.125 C-17.71751205 58.70858727 -23.02745591 53.79158465 -27.20703125 48.2890625 C-31.53682801 41.12138397 -32.89898816 33.35434101 -31.8125 25.125 C-30.08912865 19.76268841 -27.93845572 14.81393359 -24.8125 10.125 C-24.1525 10.125 -23.4925 10.125 -22.8125 10.125 C-22.8125 9.465 -22.8125 8.805 -22.8125 8.125 C-21.01953125 6.6875 -21.01953125 6.6875 -18.625 5.125 C-17.84769531 4.609375 -17.07039062 4.09375 -16.26953125 3.5625 C-10.65664348 0.27864833 -6.37909831 -0.13902477 0 0 Z " fill="#DC332E" transform="translate(197.8125,239.875)"/>
<path d="M0 0 C0.99 0.33 1.98 0.66 3 1 C5.96616874 1.12059979 8.9105516 1.18543804 11.87768555 1.20532227 C13.23896576 1.22017166 13.23896576 1.22017166 14.62774658 1.23532104 C17.63071067 1.2669362 20.63369058 1.2916936 23.63671875 1.31640625 C25.71751825 1.33697576 27.79831356 1.35797223 29.87910461 1.37937927 C35.35845558 1.43460024 40.83784426 1.48400945 46.31726074 1.53222656 C51.90750489 1.58244137 57.4976942 1.63812755 63.08789062 1.69335938 C74.05854692 1.80094127 85.0292508 1.90238622 96 2 C95.62890625 3.921875 95.62890625 3.921875 95 6 C92.9375 7.25 92.9375 7.25 91 8 C91 7.01 91 6.02 91 5 C73.84 4.67 56.68 4.34 39 4 C39.495 5.485 39.495 5.485 40 7 C39.67 7.99 39.34 8.98 39 10 C39.53625 9.835 40.0725 9.67 40.625 9.5 C43.45886009 8.90339788 46.1119806 8.9343632 49 9 C49 10.65 49 12.3 49 14 C48.01 13.34 47.02 12.68 46 12 C43.05707273 12.22071955 41.5308975 12.42486104 39.5 14.625 C39.005 15.07875 38.51 15.5325 38 16 C34.98928361 15.84946418 33.47931185 15.41319987 31.1875 13.4375 C30.5996875 12.7259375 30.5996875 12.7259375 30 12 C26.62496331 13.1858237 24.35277269 14.27573689 22 17 C17.33382789 15.36053412 17.33382789 15.36053412 15.4375 13.3125 C14.963125 12.879375 14.48875 12.44625 14 12 C10.9582904 12.28516028 9.60954198 13.26030535 7 15 C5.68 15 4.36 15 3 15 C2.01 17.475 2.01 17.475 1 20 C-0.65 20 -2.3 20 -4 20 C-4.66 18.68 -5.32 17.36 -6 16 C-7.65 16 -9.3 16 -11 16 C-11 15.67 -11 15.34 -11 15 C-9.02 15 -7.04 15 -5 15 C-5 15.66 -5 16.32 -5 17 C-3.35 17 -1.7 17 0 17 C0.33 15.68 0.66 14.36 1 13 C2.98 12.67 4.96 12.34 7 12 C7 11.34 7 10.68 7 10 C11.455 9.505 11.455 9.505 16 9 C16 9.99 16 10.98 16 12 C18.475 12.495 18.475 12.495 21 13 C21.33 11.68 21.66 10.36 22 9 C22.5775 9.165 23.155 9.33 23.75 9.5 C26.26664369 10.14462031 26.26664369 10.14462031 30 10 C30 8.35 30 6.7 30 5 C20.43 4.67 10.86 4.34 1 4 C0.67 2.68 0.34 1.36 0 0 Z " fill="#D12B28" transform="translate(237,266)"/>
<path d="M0 0 C0.99 0 1.98 0 3 0 C3 2.97 3 5.94 3 9 C3.66 9 4.32 9 5 9 C4.91621094 9.61488281 4.83242187 10.22976563 4.74609375 10.86328125 C4.64425781 11.67152344 4.54242188 12.47976563 4.4375 13.3125 C4.28087891 14.51326172 4.28087891 14.51326172 4.12109375 15.73828125 C3.85244822 18.16817116 3.85244822 18.16817116 5 21 C5 21.99 5 22.98 5 24 C7.97 24.33 10.94 24.66 14 25 C14 25.66 14 26.32 14 27 C15.299375 26.814375 16.59875 26.62875 17.9375 26.4375 C20.15234375 26.12109375 20.15234375 26.12109375 22 26 C22.33 26.33 22.66 26.66 23 27 C25.97795447 27.07307864 28.94381197 26.99618104 31.921875 26.9375 C34.75855619 26.99509759 37.24686735 27.34740559 40 28 C40.11320856 22.91696314 40.11320856 22.91696314 39 18 C40.66611905 17.957279 42.33382885 17.95936168 44 18 C46.46089912 20.46089912 45.77662328 27.96845878 46 31 C42.04 30.67 38.08 30.34 34 30 C33.505 31.485 33.505 31.485 33 33 C29.80455998 33.50172305 26.60837745 33.99673344 23.41015625 34.48046875 C21.43654986 34.78114418 19.46422014 35.09110765 17.49609375 35.42578125 C13.71146585 36.02184219 11.21422219 36.27674072 8 34 C9.98 34 11.96 34 14 34 C13.814375 33.38125 13.62875 32.7625 13.4375 32.125 C13 30 13 30 14 28 C10.37 27.34 6.74 26.68 3 26 C1.11839389 21.1550547 0.62978943 16.87146495 0.4375 11.75 C0.41589704 6.72137303 0.41589704 6.72137303 -1 2 C-0.67 1.34 -0.34 0.68 0 0 Z M1 8 C2 10 2 10 2 10 Z M2 12 C3 16 3 16 3 16 Z M24 28 C24 28.33 24 28.66 24 29 C25.65 29 27.3 29 29 29 C29 28.67 29 28.34 29 28 C27.35 28 25.7 28 24 28 Z " fill="#CD2C2A" transform="translate(142,342)"/>
<path d="M0 0 C2.07135896 0.43644785 4.1247792 0.95819266 6.16796875 1.51171875 C7.1148632 1.76596367 7.1148632 1.76596367 8.08088684 2.02534485 C10.11795428 2.57390218 12.15266977 3.13070805 14.1875 3.6875 C15.50962654 4.04413582 16.83189086 4.40026127 18.15429688 4.75585938 C26.7936554 7.08702595 35.4025839 9.51883278 44 12 C44 12.33 44 12.66 44 13 C38.45830068 13.22166797 34.2784677 12.83598877 29 11 C26.66787973 10.92477031 24.3314689 10.90674124 22 11 C22 10.34 22 9.68 22 9 C21.319375 9.28875 20.63875 9.5775 19.9375 9.875 C16.65594093 11.1317673 13.41342167 12.16274563 10 13 C9.34 12.67 8.68 12.34 8 12 C8.18733817 13.96161898 8.18733817 13.96161898 9 16 C10.84727567 17.13070444 10.84727567 17.13070444 13.0625 17.75 C13.79597656 17.99234375 14.52945313 18.2346875 15.28515625 18.484375 C15.85105469 18.65453125 16.41695312 18.8246875 17 19 C16.01 19.66 15.02 20.32 14 21 C11.51064409 20.21069203 9.330221 19.1651105 7 18 C7 17.34 7 16.68 7 16 C6.34 16 5.68 16 5 16 C1.17987196 11.4182265 -0.75805484 6.92765639 -1 1 C-0.67 0.67 -0.34 0.34 0 0 Z " fill="#E23530" transform="translate(132,210)"/>
<path d="M0 0 C2.76991237 0.00536994 5.5396627 0.0000031 8.30957031 -0.00634766 C24.41060229 -0.01318537 40.57925885 0.28598132 56.58300781 2.19287109 C57.80020508 2.32918945 57.80020508 2.32918945 59.04199219 2.46826172 C60.95217558 2.68301606 62.86147127 2.90565022 64.77050781 3.13037109 C64.77050781 3.46037109 64.77050781 3.79037109 64.77050781 4.13037109 C62.47977038 4.32890167 60.18783059 4.5135706 57.89550781 4.69287109 C55.98125 4.84949219 55.98125 4.84949219 54.02832031 5.00927734 C51.16911276 5.15777332 48.52314323 5.0237303 45.68652344 4.65771484 C37.43883232 3.79221174 29.1407182 3.89300248 20.85644531 3.81396484 C19.03227303 3.79335914 17.20810514 3.77236181 15.38394165 3.75099182 C10.61325665 3.69614421 5.84253126 3.64657249 1.07177734 3.59814453 C-3.80862974 3.54765475 -8.68897913 3.492113 -13.56933594 3.43701172 C-23.12267192 3.32988745 -32.67605827 3.2283435 -42.22949219 3.13037109 C-39.89242664 0.79330555 -39.38554172 0.85389278 -36.21386719 0.72070312 C-34.97262085 0.66352615 -34.97262085 0.66352615 -33.70629883 0.60519409 C-32.80645264 0.57483063 -31.90660645 0.54446716 -30.97949219 0.51318359 C-30.04290771 0.47564972 -29.10632324 0.43811584 -28.14135742 0.39944458 C-18.76224494 0.05408436 -9.38462792 -0.02151678 0 0 Z " fill="#D15150" transform="translate(247.2294921875,309.86962890625)"/>
<path d="M0 0 C1.010625 0.0825 2.02125 0.165 3.0625 0.25 C3.7225 1.24 4.3825 2.23 5.0625 3.25 C5.7225 2.92 6.3825 2.59 7.0625 2.25 C14.54859128 1.67414682 21.88549684 3.12708726 29.0625 5.25 C29.5575 6.24 29.5575 6.24 30.0625 7.25 C27.5065553 8.52797235 25.21026016 8.72743585 22.375 9.125 C15.97832462 10.06422264 9.69377756 11.3119512 3.375 12.6640625 C0.50469823 13.17178097 -2.03577556 13.37090518 -4.9375 13.25 C-4.79716889 11.27043559 -4.6500877 9.29134859 -4.5 7.3125 C-4.41878906 6.21035156 -4.33757812 5.10820312 -4.25390625 3.97265625 C-3.81711381 0.2140843 -3.80836871 0.32411649 0 0 Z " fill="#AA2326" transform="translate(316.9375,359.75)"/>
<path d="M0 0 C0.99 0 1.98 0 3 0 C3 1.32 3 2.64 3 4 C3.66 3.34 4.32 2.68 5 2 C7.625 1.875 7.625 1.875 10 2 C10 2.66 10 3.32 10 4 C10.66 4.33 11.32 4.66 12 5 C11.360625 5.28875 10.72125 5.5775 10.0625 5.875 C7.84793921 6.82823451 7.84793921 6.82823451 7 9 C3.9375 9.625 3.9375 9.625 1 10 C1 10.99 1 11.98 1 13 C0.01 13 -0.98 13 -2 13 C-2.33 13.33 -2.66 13.66 -3 14 C-7.60695902 16.11920115 -12.10163786 17.70043454 -17 19 C-17.66 18.01 -18.32 17.02 -19 16 C-18.125 13.3125 -18.125 13.3125 -17 11 C-15.68 11 -14.36 11 -13 11 C-12.67 10.01 -12.34 9.02 -12 8 C-10.35178756 6.96986723 -8.68496298 5.96885372 -7 5 C-6.67 4.34 -6.34 3.68 -6 3 C-4.02111039 2.27306096 -2.02045442 1.60183749 0 1 C0 0.67 0 0.34 0 0 Z " fill="#E42A26" transform="translate(223,207)"/>
<path d="M0 0 C2.1875 2.5 2.1875 2.5 4 5 C4.66 5.33 5.32 5.66 6 6 C5.33333333 7.33333333 4.66666667 8.66666667 4 10 C3.71125 10.721875 3.4225 11.44375 3.125 12.1875 C2 14 2 14 0 14.75 C-2.3577065 15.04471331 -4.61924055 15 -7 15 C-7 15.66 -7 16.32 -7 17 C-7.99 17 -8.98 17 -10 17 C-10 16.01 -10 15.02 -10 14 C-11.32 13.67 -12.64 13.34 -14 13 C-14.125 9.625 -14.125 9.625 -14 6 C-13.34 5.34 -12.68 4.68 -12 4 C-11.01 4 -10.02 4 -9 4 C-9 3.34 -9 2.68 -9 2 C-8.34 2 -7.68 2 -7 2 C-7 1.34 -7 0.68 -7 0 C-4.20824656 -1.39587672 -2.93876905 -0.97958968 0 0 Z M-12 12 C-10.515 12.99 -10.515 12.99 -9 14 C-9 13.34 -9 12.68 -9 12 C-9.99 12 -10.98 12 -12 12 Z " fill="#E62B26" transform="translate(254,189)"/>
<path d="M0 0 C3.4802719 0.23350067 6.95397774 0.39363668 10.43945312 0.51757812 C15.25509596 0.74126706 19.35194243 1.63134563 24 3 C26.30717153 3.22889639 28.62134511 3.39578606 30.9375 3.5 C36.22862967 3.82717006 40.9905762 4.23196807 46 6 C46.495 7.485 46.495 7.485 47 9 C44.22899606 10.38550197 42.0665294 10.1877467 39 10 C38.01 9.34 37.02 8.68 36 8 C33.23560434 8.19410888 33.23560434 8.19410888 30.3125 8.875 C28.82169922 9.18050781 28.82169922 9.18050781 27.30078125 9.4921875 C26.54152344 9.65976562 25.78226562 9.82734375 25 10 C24.505 8.02 24.505 8.02 24 6 C23.31486328 5.91435791 22.62972656 5.82871582 21.92382812 5.74047852 C20.96927734 5.62115967 20.01472656 5.50184082 19.03125 5.37890625 C17.98453125 5.24806641 16.9378125 5.11722656 15.859375 4.98242188 C12.58333333 4.57291667 9.30729167 4.16341146 6.03125 3.75390625 C4.98582031 3.62443604 3.94039063 3.49496582 2.86328125 3.36157227 C1.19272907 3.15061662 -0.47705944 2.93303571 -2.14453125 2.69897461 C-8.07939452 1.87647997 -14.01970395 1.66578414 -20 1.4375 C-21.06089844 1.39431641 -22.12179687 1.35113281 -23.21484375 1.30664062 C-25.80979151 1.20144004 -28.40482084 1.09929881 -31 1 C-31 0.67 -31 0.34 -31 0 C-27.66682397 -0.16991244 -24.33343885 -0.33533079 -21 -0.5 C-20.06542969 -0.54769531 -19.13085938 -0.59539062 -18.16796875 -0.64453125 C-2.7941879 -1.39709395 -2.7941879 -1.39709395 0 0 Z M27 6 C31 7 31 7 31 7 Z " fill="#C54C4B" transform="translate(296,354)"/>
<path d="M0 0 C1.10546875 1.9765625 1.10546875 1.9765625 0.10546875 8.9765625 C-13.75453125 7.9865625 -13.75453125 7.9865625 -27.89453125 6.9765625 C-27.89453125 5.9865625 -27.89453125 4.9965625 -27.89453125 3.9765625 C-23.23468596 2.94257316 -18.56749355 1.94951161 -13.89453125 0.9765625 C-12.74082031 0.7290625 -11.58710938 0.4815625 -10.3984375 0.2265625 C-9.34527344 0.0203125 -8.29210937 -0.1859375 -7.20703125 -0.3984375 C-6.25441406 -0.59179688 -5.30179688 -0.78515625 -4.3203125 -0.984375 C-1.89453125 -1.0234375 -1.89453125 -1.0234375 0 0 Z " fill="#B91E1F" transform="translate(181.89453125,361.0234375)"/>
<path d="M0 0 C1.8125 2.5 1.8125 2.5 3 5 C3.33 5.66 3.66 6.32 4 7 C4.66 7 5.32 7 6 7 C6 8.98 6 10.96 6 13 C3.525 12.505 3.525 12.505 1 12 C1 11.34 1 10.68 1 10 C0.01 10 -0.98 10 -2 10 C-2.33 9.34 -2.66 8.68 -3 8 C-3.62648438 8.01160156 -4.25296875 8.02320313 -4.8984375 8.03515625 C-5.71570313 8.04417969 -6.53296875 8.05320313 -7.375 8.0625 C-8.18710937 8.07410156 -8.99921875 8.08570313 -9.8359375 8.09765625 C-12 8 -12 8 -14 7 C-15.32809658 4.41370666 -16.05585906 2.67030875 -15.8125 -0.25 C-15.544375 -0.8275 -15.27625 -1.405 -15 -2 C-9.94515178 -3.68494941 -4.78811885 -2.12805282 0 0 Z " fill="#E22D29" transform="translate(291,214)"/>
<path d="M0 0 C1.26972656 0.21720703 2.53945313 0.43441406 3.84765625 0.65820312 C9.40941305 1.63194919 14.66741137 2.67053364 20 4.5625 C19.67 7.8625 19.34 11.1625 19 14.5625 C17 12.5625 17 12.5625 16.875 8.9375 C16.91625 7.82375 16.9575 6.71 17 5.5625 C12.545 6.0575 12.545 6.0575 8 6.5625 C7.67 7.5525 7.34 8.5425 7 9.5625 C6.505 8.5725 6.505 8.5725 6 7.5625 C5.34 7.2325 4.68 6.9025 4 6.5625 C4 5.9025 4 5.2425 4 4.5625 C-7.94668313 2.05970325 -19.84410803 0.62115862 -32 -0.4375 C-32 -1.0975 -32 -1.7575 -32 -2.4375 C-22.47842116 -5.61135961 -9.64479618 -1.72120972 0 0 Z " fill="#D24343" transform="translate(342,317.4375)"/>
<path d="M0 0 C0.66 0.33 1.32 0.66 2 1 C0.68 2.65 -0.64 4.3 -2 6 C0.97 5.34 3.94 4.68 7 4 C3.8512351 7.1487649 0.75314985 8.79056827 -3.1875 10.6875 C-4.61857958 11.38913939 -6.04956627 12.09096825 -7.48046875 12.79296875 C-8.21958496 13.15310059 -8.95870117 13.51323242 -9.72021484 13.88427734 C-13.4929179 15.73063127 -17.2454871 17.61701179 -21 19.5 C-22.35407317 20.17727029 -23.70823113 20.85437112 -25.0625 21.53125 C-26.031875 22.0159375 -27.00125 22.500625 -28 23 C-28.66 22.34 -29.32 21.68 -30 21 C-22.50391534 15.70071136 -14.92825823 10.52077848 -7.33862305 5.35668945 C-6.53465088 4.80843506 -5.73067871 4.26018066 -4.90234375 3.6953125 C-4.17523193 3.20047363 -3.44812012 2.70563477 -2.69897461 2.19580078 C-1.05210168 1.10918618 -1.05210168 1.10918618 0 0 Z " fill="#C63B3B" transform="translate(173,238)"/>
<path d="M0 0 C5.34624544 1.10611975 10.04528546 2.72908917 15 5 C15 5.66 15 6.32 15 7 C3.0859375 12.95703125 3.0859375 12.95703125 0.98730469 14.00244141 C-0.81546414 14.90736935 -2.60761529 15.83337298 -4.3984375 16.76171875 C-7 18 -7 18 -9 18 C-8.01 21.96 -7.02 25.92 -6 30 C-6.66 30.33 -7.32 30.66 -8 31 C-11.44419134 21.58997722 -11.44419134 21.58997722 -11 17 C-10.34 17 -9.68 17 -9 17 C-9 16.34 -9 15.68 -9 15 C-7.02 14.67 -5.04 14.34 -3 14 C-3 13.34 -3 12.68 -3 12 C-2.34 11.67 -1.68 11.34 -1 11 C-1 10.01 -1 9.02 -1 8 C-0.01 7.67 0.98 7.34 2 7 C2.33 6.01 2.66 5.02 3 4 C1.68 3.01 0.36 2.02 -1 1 C-0.67 0.67 -0.34 0.34 0 0 Z " fill="#DC2E2C" transform="translate(382,344)"/>
<path d="M0 0 C5.84471562 0.52184961 10.59537087 1.77019231 16 4 C21.4456341 6.17825364 26.88810762 7.83243307 32.58203125 9.25390625 C35 10 35 10 38 12 C38.66 11.01 39.32 10.02 40 9 C40.99 9 41.98 9 43 9 C43.33 8.34 43.66 7.68 44 7 C44.66 7.66 45.32 8.32 46 9 C48.57061311 9.64767793 48.57061311 9.64767793 51 10 C51.33 9.01 51.66 8.02 52 7 C52.99 7 53.98 7 55 7 C55 7.66 55 8.32 55 9 C52.8046875 10.76171875 52.8046875 10.76171875 49.875 12.6875 C48.92367187 13.33074219 47.97234375 13.97398437 46.9921875 14.63671875 C40.93460366 17.39663619 34.67895745 13.99650171 28.75 11.875 C27.4511084 11.41565063 27.4511084 11.41565063 26.12597656 10.94702148 C17.34551092 7.81581112 8.66253471 4.44199749 0 1 C0 0.67 0 0.34 0 0 Z " fill="#D13836" transform="translate(147,209)"/>
<path d="M0 0 C7.17130684 3.68304154 13.56764761 8.1546953 20 13 C16.19676332 14.14981574 14.65529576 13.51561044 11 12 C8.29113059 11.83201738 8.29113059 11.83201738 6 12 C6.33 12.99 6.66 13.98 7 15 C6.67 15.66 6.34 16.32 6 17 C6.66 17.66 7.32 18.32 8 19 C7.34 19.33 6.68 19.66 6 20 C3.55667274 18.92481882 1.23245477 17.80191434 -1.125 16.5625 C-1.78371094 16.22412109 -2.44242187 15.88574219 -3.12109375 15.53710938 C-4.75106547 14.69850074 -6.37601909 13.85015189 -8 13 C-7.360625 12.896875 -6.72125 12.79375 -6.0625 12.6875 C-5.0415625 12.3471875 -5.0415625 12.3471875 -4 12 C-3.67 11.01 -3.34 10.02 -3 9 C-2.34 9 -1.68 9 -1 9 C-1 9.66 -1 10.32 -1 11 C1.64 10.67 4.28 10.34 7 10 C6.67 8.35 6.34 6.7 6 5 C4.68 4.67 3.36 4.34 2 4 C2 3.34 2 2.68 2 2 C1.34 2 0.68 2 0 2 C0 1.34 0 0.68 0 0 Z " fill="#D83834" transform="translate(270,200)"/>
<path d="M0 0 C8.26022897 4.15196694 15.57371616 9.54357725 23 15 C23.79792969 15.55429687 24.59585937 16.10859375 25.41796875 16.6796875 C25.94003906 17.11539062 26.46210938 17.55109375 27 18 C27 18.66 27 19.32 27 20 C22.04896472 19.43279402 18.39984694 17.16418564 14.1875 14.6875 C8.8708195 11.59924635 3.5242952 8.7033785 -2 6 C-1.67 5.38125 -1.34 4.7625 -1 4.125 C0.14193235 2.08981656 0.14193235 2.08981656 0 0 Z " fill="#CD4D4B" transform="translate(330,241)"/>
<path d="M0 0 C0.99 0 1.98 0 3 0 C2.67 2.97 2.34 5.94 2 9 C0.68 9 -0.64 9 -2 9 C-1.67 11.97 -1.34 14.94 -1 18 C1.64 18.33 4.28 18.66 7 19 C6.979375 17.865625 6.95875 16.73125 6.9375 15.5625 C7 12 7 12 8 11 C11 10.875 11 10.875 14 11 C15 12 15 12 15.0625 15.5625 C15.041875 16.696875 15.02125 17.83125 15 19 C18.3 19 21.6 19 25 19 C25 19.66 25 20.32 25 21 C23.37536158 21.05395478 21.75021459 21.09277195 20.125 21.125 C18.76761719 21.15980469 18.76761719 21.15980469 17.3828125 21.1953125 C15 21 15 21 13 19 C12.875 15.875 12.875 15.875 13 13 C11.68 13 10.36 13 9 13 C9 15.31 9 17.62 9 20 C5.14854957 21.92572521 0.19956748 21.04883218 -4 21 C-4 16.38 -4 11.76 -4 7 C-2.35 7 -0.7 7 1 7 C0.67 4.69 0.34 2.38 0 0 Z " fill="#C95957" transform="translate(296,280)"/>
<path d="M0 0 C0.98484375 0.01804687 1.9696875 0.03609375 2.984375 0.0546875 C4.10585938 0.08949219 4.10585938 0.08949219 5.25 0.125 C5.25 1.115 5.25 2.105 5.25 3.125 C3.93 3.455 2.61 3.785 1.25 4.125 C1.25 5.115 1.25 6.105 1.25 7.125 C2.24 7.785 3.23 8.445 4.25 9.125 C-2.88021479 9.36267383 -9.80692783 8.87972339 -16.75 7.125 C-17.41 6.465 -18.07 5.805 -18.75 5.125 C-15.5886498 2.31491093 -13.89625351 2.02134366 -9.75 2.125 C-9.15703125 1.79886719 -8.5640625 1.47273438 -7.953125 1.13671875 C-5.16632543 -0.14303495 -3.05173273 -0.0726603 0 0 Z " fill="#D03B39" transform="translate(341.75,367.875)"/>
<path d="M0 0 C30.69 0 61.38 0 93 0 C92.67 1.32 92.34 2.64 92 4 C91.34 4.33 90.68 4.66 90 5 C90 3.68 90 2.36 90 1 C60.3 1 30.6 1 0 1 C0 0.67 0 0.34 0 0 Z " fill="#DB504D" transform="translate(240,268)"/>
<path d="M0 0 C1.66611905 -0.042721 3.33382885 -0.04063832 5 0 C6.81115956 1.81115956 6.38199448 4.61278227 6.5625 7.0625 C6.68818359 8.71958984 6.68818359 8.71958984 6.81640625 10.41015625 C6.87699219 11.26480469 6.93757813 12.11945313 7 13 C4.08302989 12.85895309 1.1665198 12.71235186 -1.75 12.5625 C-2.9875 12.50352539 -2.9875 12.50352539 -4.25 12.44335938 C-5.04921875 12.40146484 -5.8484375 12.35957031 -6.671875 12.31640625 C-7.4050293 12.27974854 -8.13818359 12.24309082 -8.89355469 12.20532227 C-12.10306596 11.89248047 -14.94464999 11.01845 -18 10 C-15.31173174 8.65586587 -13.18764598 8.86760137 -10.1875 8.875 C-8.63095703 8.87113281 -8.63095703 8.87113281 -7.04296875 8.8671875 C-4.24657058 8.98923825 -1.72060121 9.36636645 1 10 C1.11320856 4.91696314 1.11320856 4.91696314 0 0 Z " fill="#A81D23" transform="translate(181,360)"/>
<path d="M0 0 C0 0.99 0 1.98 0 3 C2.475 3.495 2.475 3.495 5 4 C5.33 2.68 5.66 1.36 6 0 C8 3 8 3 7.625 5.1875 C7.41875 5.785625 7.2125 6.38375 7 7 C3 7 3 7 0.5 4.9375 C-1.75418303 2.75171724 -1.75418303 2.75171724 -4.125 3.125 C-6.25761323 4.0628325 -6.25761323 4.0628325 -9 6 C-10.32 6 -11.64 6 -13 6 C-13.66 7.65 -14.32 9.3 -15 11 C-16.65 11 -18.3 11 -20 11 C-20.66 9.68 -21.32 8.36 -22 7 C-23.65 7 -25.3 7 -27 7 C-27 6.67 -27 6.34 -27 6 C-25.02 6 -23.04 6 -21 6 C-21 6.66 -21 7.32 -21 8 C-19.35 8 -17.7 8 -16 8 C-15.67 6.68 -15.34 5.36 -15 4 C-13.02 3.67 -11.04 3.34 -9 3 C-9 2.34 -9 1.68 -9 1 C-5.92677456 0.08941469 -3.19902639 -0.08886184 0 0 Z " fill="#C73A3A" transform="translate(253,275)"/>
<path d="M0 0 C0.99 0 1.98 0 3 0 C3 2.97 3 5.94 3 9 C3.66 9 4.32 9 5 9 C4.91621094 9.61488281 4.83242187 10.22976563 4.74609375 10.86328125 C4.64425781 11.67152344 4.54242188 12.47976563 4.4375 13.3125 C4.28087891 14.51326172 4.28087891 14.51326172 4.12109375 15.73828125 C3.85244822 18.16817116 3.85244822 18.16817116 5 21 C5 21.99 5 22.98 5 24 C7.97 24.33 10.94 24.66 14 25 C14 25.66 14 26.32 14 27 C17.96 26.505 17.96 26.505 22 26 C21.67 26.66 21.34 27.32 21 28 C13.98847172 28.39522184 8.52548258 27.55321674 2 25 C1.86722656 23.75863281 1.73445312 22.51726562 1.59765625 21.23828125 C1.41938849 19.59634139 1.24099654 17.95441501 1.0625 16.3125 C0.97548828 15.49587891 0.88847656 14.67925781 0.79882812 13.83789062 C0.43701404 10.52796173 0.06432912 7.30246674 -0.62890625 4.04296875 C-1 2 -1 2 0 0 Z M1 8 C2 10 2 10 2 10 Z M2 12 C3 16 3 16 3 16 Z " fill="#D65A57" transform="translate(142,342)"/>
<path d="M0 0 C0.66 0 1.32 0 2 0 C2.07006227 3.01267767 2.05642672 5.73040567 1.4375 8.6875 C0.77798502 11.1457356 0.77798502 11.1457356 2 14 C4.97 14.495 4.97 14.495 8 15 C3.40535876 18.06309416 -0.52427802 19.12993239 -6 19 C-4.12275039 12.62267685 -2.14328358 6.29304541 0 0 Z " fill="#D24645" transform="translate(125,368)"/>
<path d="M0 0 C0.5259375 0.7425 0.5259375 0.7425 1.0625 1.5 C3.94374289 3.73063966 6.47009026 3.19980621 10 3 C9.375 5.375 9.375 5.375 8 8 C3.66586616 10.11667001 -0.23355631 10.19065775 -5 10 C-4.67 7.36 -4.34 4.72 -4 2 C-2.68 2 -1.36 2 0 2 C0 1.34 0 0.68 0 0 Z " fill="#BA1E20" transform="translate(319,360)"/>
<path d="M0 0 C0 0.66 0 1.32 0 2 C-4.29 2.66 -8.58 3.32 -13 4 C-12.01 4.99 -11.02 5.98 -10 7 C-10 7.33 -10 7.66 -10 8 C-15.28 7.67 -20.56 7.34 -26 7 C-26 6.01 -26 5.02 -26 4 C-8.08805031 0 -8.08805031 0 0 0 Z " fill="#A12323" transform="translate(180,361)"/>
<path d="M0 0 C15.57469196 -0.39374221 15.57469196 -0.39374221 22 2 C22.33 2.99 22.66 3.98 23 5 C20.22899606 6.38550197 18.0665294 6.1877467 15 6 C14.01 5.34 13.02 4.68 12 4 C9.23560434 4.19410888 9.23560434 4.19410888 6.3125 4.875 C5.31863281 5.07867187 4.32476562 5.28234375 3.30078125 5.4921875 C2.54152344 5.65976562 1.78226562 5.82734375 1 6 C0.67 4.02 0.34 2.04 0 0 Z M3 2 C7 3 7 3 7 3 Z " fill="#C73636" transform="translate(320,358)"/>
<path d="M0 0 C1.46067199 0.45082469 2.91848032 0.91093537 4.375 1.375 C5.18710938 1.63023437 5.99921875 1.88546875 6.8359375 2.1484375 C9 3 9 3 11 5 C8.36 4.67 5.72 4.34 3 4 C3.32074044 5.33641852 3.65864073 6.66869885 4 8 C4.20625 9.19625 4.4125 10.3925 4.625 11.625 C5.07875 12.73875 5.5325 13.8525 6 15 C9.36615515 16.34274872 9.36615515 16.34274872 13 17 C15.4375 18.625 15.4375 18.625 17 20 C13.6868604 21.04127245 12.39801692 21.18574123 9.1875 19.6875 C8.465625 19.130625 7.74375 18.57375 7 18 C7 17.34 7 16.68 7 16 C6.34 16 5.68 16 5 16 C1.17987196 11.4182265 -0.75805484 6.92765639 -1 1 C-0.67 0.67 -0.34 0.34 0 0 Z " fill="#CB4E4F" transform="translate(132,210)"/>
<path d="M0 0 C-0.33 2.64 -0.66 5.28 -1 8 C-1.66 8 -2.32 8 -3 8 C-3 7.34 -3 6.68 -3 6 C-4.32 6 -5.64 6 -7 6 C-7.33 7.32 -7.66 8.64 -8 10 C-8.33 8.68 -8.66 7.36 -9 6 C-11.41645782 5.83312552 -11.41645782 5.83312552 -14 6 C-14.66 6.66 -15.32 7.32 -16 8 C-18.72869407 7.96712417 -21.2966618 7.43602229 -24 7 C-21.289249 5.56256149 -18.69772072 4.52732836 -15.7421875 3.7109375 C-14.95199219 3.49179688 -14.16179687 3.27265625 -13.34765625 3.046875 C-12.53167969 2.82515625 -11.71570313 2.6034375 -10.875 2.375 C-10.05128906 2.14554688 -9.22757812 1.91609375 -8.37890625 1.6796875 C-2.27004278 0 -2.27004278 0 0 0 Z " fill="#D42923" transform="translate(369,210)"/>
<path d="M0 0 C-6.37535902 2.44850745 -12.18609459 3.52014751 -19 4 C-19 7.63 -19 11.26 -19 15 C-18.34 15 -17.68 15 -17 15 C-17.33 17.31 -17.66 19.62 -18 22 C-19.48776566 19.23700663 -20.44806079 16.68734407 -21.125 13.625 C-21.29257813 12.89539063 -21.46015625 12.16578125 -21.6328125 11.4140625 C-22.06326197 8.58408621 -22.05765807 5.85819271 -22 3 C-4.6160221 -1.53867403 -4.6160221 -1.53867403 0 0 Z " fill="#CA5454" transform="translate(160,319)"/>
<path d="M0 0 C1.2065625 0.0309375 1.2065625 0.0309375 2.4375 0.0625 C2.4375 0.7225 2.4375 1.3825 2.4375 2.0625 C1.4475 2.7225 0.4575 3.3825 -0.5625 4.0625 C-1.29215366 6.62532742 -1.29215366 6.62532742 -1.5625 9.0625 C0.22908489 9.08946365 2.02078473 9.10887917 3.8125 9.125 C5.30910156 9.14240234 5.30910156 9.14240234 6.8359375 9.16015625 C9.42182453 9.24256602 9.42182453 9.24256602 11.4375 8.0625 C14.1098621 7.92834528 16.76000488 8.01931459 19.4375 8.0625 C15.83311201 10.17193827 12.05190413 10.9111821 8 11.6875 C7.34451172 11.8215625 6.68902344 11.955625 6.01367188 12.09375 C2.43975146 12.79634619 -0.92074021 13.21687132 -4.5625 13.0625 C-4.42216889 11.08293559 -4.2750877 9.10384859 -4.125 7.125 C-4.04378906 6.02285156 -3.96257812 4.92070312 -3.87890625 3.78515625 C-3.44879983 0.08411707 -3.44879983 0.08411707 0 0 Z " fill="#A6363A" transform="translate(316.5625,359.9375)"/>
<path d="M0 0 C5.85839259 3.18027026 9.81972974 7.14160741 13 13 C12.01 13.495 12.01 13.495 11 14 C11 13.34 11 12.68 11 12 C10.01 12 9.02 12 8 12 C7.67 11.01 7.34 10.02 7 9 C6.443125 9.144375 5.88625 9.28875 5.3125 9.4375 C2.88615805 10.02769128 0.45093655 10.523429 -2 11 C-1.49396008 8.83125748 -1.00016187 7.00032373 0 5 C0.0396713 3.33380554 0.04384447 1.66608987 0 0 Z " fill="#DC3D3E" transform="translate(212,243)"/>
<path d="M0 0 C0 0.33 0 0.66 0 1 C-0.9075 1.12375 -1.815 1.2475 -2.75 1.375 C-5.87282614 1.79588971 -5.87282614 1.79588971 -7.875 3.0625 C-11.19989176 4.52936401 -14.38129437 4.05743977 -18 4 C-18.99 4.33 -19.98 4.66 -21 5 C-23.33247761 5.33926947 -25.66585471 5.67240066 -28 6 C-29.33917261 6.30903983 -30.67653254 6.62942911 -32 7 C-31.34 6.67 -30.68 6.34 -30 6 C-29.67 5.01 -29.34 4.02 -29 3 C-20.58765386 -1.20617307 -9.13205366 -0.24644223 0 0 Z " fill="#D15556" transform="translate(186,358)"/>
<path d="M0 0 C0.33 0.66 0.66 1.32 1 2 C-2.7217611 7.77514654 -6.14077153 9.03103599 -12.76953125 10.5546875 C-13.87361328 10.77511719 -13.87361328 10.77511719 -15 11 C-14.34 9.68 -13.68 8.36 -13 7 C-12.34 7 -11.68 7 -11 7 C-10.938125 6.401875 -10.87625 5.80375 -10.8125 5.1875 C-10 3 -10 3 -7.75 1.25 C-4.87860126 -0.05518125 -3.10902534 -0.26648789 0 0 Z " fill="#D22E2B" transform="translate(185,234)"/>
<path d="M0 0 C5.84471562 0.52184961 10.59537087 1.77019231 16 4 C21.510054 6.2040216 27.00689221 7.84899576 32.77734375 9.25390625 C35 10 35 10 36 12 C32.56873724 13.19103704 30.74181699 12.82154659 27.40234375 11.48828125 C26.52280029 11.14410156 25.64325684 10.79992187 24.73706055 10.4453125 C23.81320557 10.07148438 22.88935059 9.69765625 21.9375 9.3125 C20.04709274 8.56845696 18.15646955 7.8249623 16.265625 7.08203125 C15.35876953 6.72189941 14.45191406 6.36176758 13.51757812 5.99072266 C9.0463592 4.23119915 4.52650101 2.61130715 0 1 C0 0.67 0 0.34 0 0 Z " fill="#D05654" transform="translate(147,209)"/>
<path d="M0 0 C5.68589074 0.40613505 7.89634638 2.35230789 12 6 C12.99 6.33 13.98 6.66 15 7 C15 6.01 15 5.02 15 4 C17.64 4.33 20.28 4.66 23 5 C23 4.34 23 3.68 23 3 C25.95664519 1.5216774 28.74229737 1.93967217 32 2 C28.77659571 4.1489362 25.75720783 5.34749944 22.125 6.6875 C20.91070312 7.14511719 19.69640625 7.60273438 18.4453125 8.07421875 C14.91236983 9.02354688 13.38978605 9.22609282 10 8 C7.32421875 6.40625 7.32421875 6.40625 4.6875 4.5 C3.80449219 3.8709375 2.92148437 3.241875 2.01171875 2.59375 C1.34785156 2.0678125 0.68398438 1.541875 0 1 C0 0.67 0 0.34 0 0 Z " fill="#C9403F" transform="translate(297,216)"/>
<path d="M0 0 C0 0.66 0 1.32 0 2 C-1.00160156 2.04898438 -2.00320312 2.09796875 -3.03515625 2.1484375 C-4.37762759 2.22354079 -5.7200743 2.29908526 -7.0625 2.375 C-8.37347656 2.44460937 -9.68445313 2.51421875 -11.03515625 2.5859375 C-15.02478492 3.00258838 -18.23465447 3.66654005 -22 5 C-22.33 5.66 -22.66 6.32 -23 7 C-23.99 7 -24.98 7 -26 7 C-26 7.66 -26 8.32 -26 9 C-27.65 9 -29.3 9 -31 9 C-22.38494587 -1.00457899 -12.28983404 -0.50796099 0 0 Z " fill="#CC4F4D" transform="translate(206,240)"/>
<path d="M0 0 C0.33 0.66 0.66 1.32 1 2 C0.34 2 -0.32 2 -1 2 C-0.67 2.99 -0.34 3.98 0 5 C3.3 5 6.6 5 10 5 C6.4125144 7.6906142 3.30583919 9.36237237 -0.75 11.1875 C-1.92046875 11.71730469 -3.0909375 12.24710938 -4.296875 12.79296875 C-5.18890625 13.19128906 -6.0809375 13.58960938 -7 14 C-7.33 13.34 -7.66 12.68 -8 12 C-7.34 11.34 -6.68 10.68 -6 10 C-5.01 10 -4.02 10 -3 10 C-3 9.01 -3 8.02 -3 7 C-4.32 6.34 -5.64 5.68 -7 5 C-4.69 3.35 -2.38 1.7 0 0 Z " fill="#D24747" transform="translate(188,228)"/>
<path d="M0 0 C0 0.33 0 0.66 0 1 C-0.78246094 1.13277344 -1.56492188 1.26554687 -2.37109375 1.40234375 C-3.38300781 1.57894531 -4.39492187 1.75554687 -5.4375 1.9375 C-6.44683594 2.11152344 -7.45617187 2.28554688 -8.49609375 2.46484375 C-10.9287438 2.74751097 -10.9287438 2.74751097 -12 4 C-14.07926529 4.21145071 -16.1641172 4.36904772 -18.25 4.5 C-21.45025729 4.70273123 -24.51332226 4.8975038 -27.65234375 5.55859375 C-31.2696491 6.23871938 -34.37740595 5.55259909 -38 5 C-38 4.67 -38 4.34 -38 4 C-33.7312287 3.31967447 -29.45972013 2.65829108 -25.1875 2 C-23.99189453 1.80921875 -22.79628906 1.6184375 -21.56445312 1.421875 C-14.31043416 0.31499472 -7.33708244 -0.2704569 0 0 Z " fill="#CA5657" transform="translate(198,313)"/>
<path d="M0 0 C2.92879371 0.62759865 5.36095629 1.58622659 8 3 C8 4.98 8 6.96 8 9 C8.66 9 9.32 9 10 9 C9.25 14.75 9.25 14.75 7 17 C3.375 17.125 3.375 17.125 0 17 C0.825 16.29875 1.65 15.5975 2.5 14.875 C5.26855565 12.23462311 5.26855565 12.23462311 5.375 8.875 C5.0846416 5.93580872 5.0846416 5.93580872 4 3 C1.98491642 2.26676204 1.98491642 2.26676204 0 2 C0 1.34 0 0.68 0 0 Z " fill="#D63538" transform="translate(188,262)"/>
<path d="M0 0 C0.66 0 1.32 0 2 0 C2.84681133 5.08086796 3.09038099 9.84828377 3 15 C-0.22063736 16.61031868 -2.68205372 15.06849117 -6 14 C-7.67632417 13.35800351 -9.34750513 12.70105843 -11 12 C-10.67 11.34 -10.34 10.68 -10 10 C-7.03 10 -4.06 10 -1 10 C-1.020625 8.906875 -1.04125 7.81375 -1.0625 6.6875 C-1 3 -1 3 0 0 Z M1 5 C2 7 2 7 2 7 Z M0 8 C0 9.32 0 10.64 0 12 C-1.65 12 -3.3 12 -5 12 C-5 12.66 -5 13.32 -5 14 C-3.33388095 14.042721 -1.66617115 14.04063832 0 14 C1.29633621 12.93354885 1.29633621 12.93354885 1.0625 10.4375 C1.041875 9.633125 1.02125 8.82875 1 8 C0.67 8 0.34 8 0 8 Z " fill="#D35251" transform="translate(353,353)"/>
<path d="M0 0 C6.45846531 0.56244893 12.35063262 1.73728465 18.5625 3.5625 C19.38041016 3.79646484 20.19832031 4.03042969 21.04101562 4.27148438 C23.02920527 4.84119954 25.01488299 5.41966914 27 6 C27 6.33 27 6.66 27 7 C21.45830068 7.22166797 17.2784677 6.83598877 12 5 C9.66787973 4.92477031 7.3314689 4.90674124 5 5 C5 4.34 5 3.68 5 3 C4.01 3 3.02 3 2 3 C2 2.34 2 1.68 2 1 C1.34 0.67 0.68 0.34 0 0 Z " fill="#CD4C4B" transform="translate(149,216)"/>
<path d="M0 0 C-0.33 0.99 -0.66 1.98 -1 3 C-3.75 4.0625 -3.75 4.0625 -7 5 C-9.39101676 5.92380193 -11.70808071 6.85404035 -14 8 C-15.67654729 7.72057545 -17.34608154 7.39171753 -19 7 C-18.67 7.99 -18.34 8.98 -18 10 C-19.32 9.67 -20.64 9.34 -22 9 C-22 8.01 -22 7.02 -22 6 C-18.8980736 4.9929564 -15.79311902 3.99559195 -12.6875 3 C-11.80642578 2.71382813 -10.92535156 2.42765625 -10.01757812 2.1328125 C-8.74624023 1.72675781 -8.74624023 1.72675781 -7.44921875 1.3125 C-6.27879028 0.93544922 -6.27879028 0.93544922 -5.0847168 0.55078125 C-3 0 -3 0 0 0 Z " fill="#CF5053" transform="translate(125,342)"/>
<path d="M0 0 C0.66 0.33 1.32 0.66 2 1 C0.68 2.65 -0.64 4.3 -2 6 C0.97 5.34 3.94 4.68 7 4 C3.98547007 7.01452993 1.9660723 8.52244365 -2 10 C-5.1875 9.1875 -5.1875 9.1875 -8 8 C-8.99 8 -9.98 8 -11 8 C-7.37 5.36 -3.74 2.72 0 0 Z " fill="#D36060" transform="translate(173,238)"/>
<path d="M0 0 C3 0.125 3 0.125 4 1.125 C4.04092937 3.45797433 4.04241723 5.79205225 4 8.125 C7.3 8.125 10.6 8.125 14 8.125 C14 8.785 14 9.445 14 10.125 C12.37536158 10.17895478 10.75021459 10.21777195 9.125 10.25 C7.76761719 10.28480469 7.76761719 10.28480469 6.3828125 10.3203125 C4 10.125 4 10.125 2 8.125 C1.875 5 1.875 5 2 2.125 C0.68 2.125 -0.64 2.125 -2 2.125 C-2 4.435 -2 6.745 -2 9.125 C-4 7.125 -4 7.125 -4.1875 4.0625 C-3.93866667 0.16411111 -3.93866667 0.16411111 0 0 Z " fill="#CF7575" transform="translate(307,290.875)"/>
<path d="M0 0 C0.99 0.33 1.98 0.66 3 1 C2.67 2.32 2.34 3.64 2 5 C2.53625 4.835 3.0725 4.67 3.625 4.5 C6.45886009 3.90339788 9.1119806 3.9343632 12 4 C12 5.65 12 7.3 12 9 C11.01 8.34 10.02 7.68 9 7 C6.54120334 7.01262187 6.54120334 7.01262187 3.9375 7.4375 C-0.80252583 8.09873708 -0.80252583 8.09873708 -3 7 C-3 6.34 -3 5.68 -3 5 C-3.66 4.67 -4.32 4.34 -5 4 C-4.0409375 3.8453125 -4.0409375 3.8453125 -3.0625 3.6875 C-2.381875 3.460625 -1.70125 3.23375 -1 3 C-0.67 2.01 -0.34 1.02 0 0 Z " fill="#E22927" transform="translate(274,271)"/>
<path d="M0 0 C1.98 0 3.96 0 6 0 C2.59780735 2.74792483 -1.48464588 6 -6 6 C-5.01 9.96 -4.02 13.92 -3 18 C-3.66 18.33 -4.32 18.66 -5 19 C-8.44419134 9.58997722 -8.44419134 9.58997722 -8 5 C-7.34 5 -6.68 5 -6 5 C-6 4.34 -6 3.68 -6 3 C-4.02 2.67 -2.04 2.34 0 2 C0 1.34 0 0.68 0 0 Z " fill="#CD4B4E" transform="translate(379,356)"/>
<path d="M0 0 C-0.66 0.66 -1.32 1.32 -2 2 C-3.32 2 -4.64 2 -6 2 C-6 3.98 -6 5.96 -6 8 C-4.35 8 -2.7 8 -1 8 C-1 12.29 -1 16.58 -1 21 C-1.66 20.67 -2.32 20.34 -3 20 C-3 16.7 -3 13.4 -3 10 C-4.32 10 -5.64 10 -7 10 C-7 6.7 -7 3.4 -7 0 C-3.86650268 -1.04449911 -3.01031744 -0.93423645 0 0 Z " fill="#C44241" transform="translate(323,279)"/>
<path d="M0 0 C0.75740479 0.00410889 1.51480957 0.00821777 2.29516602 0.01245117 C3.13595703 0.01374023 3.97674805 0.0150293 4.84301758 0.01635742 C5.73601562 0.02924805 6.62901367 0.04213867 7.54907227 0.05541992 C8.90210449 0.06508789 8.90210449 0.06508789 10.2824707 0.07495117 C16.59338581 0.14756868 22.84680547 0.43827098 29.11157227 1.24291992 C29.11157227 1.57291992 29.11157227 1.90291992 29.11157227 2.24291992 C24.54943683 2.44010719 19.98685912 2.62398363 15.42407227 2.80541992 C14.13049805 2.86149414 12.83692383 2.91756836 11.50415039 2.9753418 C9.63339844 3.04785156 9.63339844 3.04785156 7.72485352 3.12182617 C6.57799072 3.16895752 5.43112793 3.21608887 4.24951172 3.26464844 C1.37316035 3.24473128 -1.10224467 2.92064013 -3.88842773 2.24291992 C-1.88842773 0.24291992 -1.88842773 0.24291992 0 0 Z " fill="#D56564" transform="translate(205.888427734375,352.757080078125)"/>
<path d="M0 0 C8.08589235 1.88044008 16.10031776 5.40021184 23 10 C21.02 10.33 19.04 10.66 17 11 C16.67 10.34 16.34 9.68 16 9 C13.67843403 8.59270772 11.3431213 8.25561323 9 8 C8.67 7.01 8.34 6.02 8 5 C7.34 5 6.68 5 6 5 C6 4.34 6 3.68 6 3 C4.35 3 2.7 3 1 3 C0.67 2.01 0.34 1.02 0 0 Z " fill="#CC5654" transform="translate(154,188)"/>
<path d="M0 0 C0.66 0.33 1.32 0.66 2 1 C1.67 1.66 1.34 2.32 1 3 C0.34 3 -0.32 3 -1 3 C-1.20625 3.61875 -1.4125 4.2375 -1.625 4.875 C-3.54775888 7.84653645 -5.66594527 8.13024659 -9 9 C-9.66 7.68 -10.32 6.36 -11 5 C-9.730447 4.35165346 -8.45930294 3.70642185 -7.1875 3.0625 C-6.47980469 2.70285156 -5.77210938 2.34320313 -5.04296875 1.97265625 C-3 1 -3 1 0 0 Z " fill="#CF504F" transform="translate(303,206)"/>
<path d="M0 0 C0.66 0.99 1.32 1.98 2 3 C1.67 3.66 1.34 4.32 1 5 C-0.134375 5.12375 -1.26875 5.2475 -2.4375 5.375 C-4.2009375 5.684375 -4.2009375 5.684375 -6 6 C-6.33 6.66 -6.66 7.32 -7 8 C-7.33 8.66 -7.66 9.32 -8 10 C-11.625 10.75 -11.625 10.75 -15 11 C-12.31935789 8.01837352 -9.15182515 6.00281004 -5.8125 3.8125 C-4.72582031 3.09707031 -3.63914063 2.38164062 -2.51953125 1.64453125 C-1.68808594 1.10183594 -0.85664063 0.55914062 0 0 Z " fill="#D0514F" transform="translate(223,204)"/>
<path d="M0 0 C1.6498275 0.42218816 3.29483665 0.86324425 4.9375 1.3125 C6.31228516 1.67794922 6.31228516 1.67794922 7.71484375 2.05078125 C8.46894531 2.36402344 9.22304688 2.67726563 10 3 C10.33 3.99 10.66 4.98 11 6 C5.555 8.475 5.555 8.475 0 11 C0 10.01 0 9.02 0 8 C0.99 8 1.98 8 3 8 C3 7.34 3 6.68 3 6 C3.66 6 4.32 6 5 6 C5 5.34 5 4.68 5 4 C4.01 4 3.02 4 2 4 C1.34 2.68 0.68 1.36 0 0 Z " fill="#CD5859" transform="translate(386,345)"/>
<path d="M0 0 C1.32 0 2.64 0 4 0 C4.33 0.99 4.66 1.98 5 3 C5.66 3.33 6.32 3.66 7 4 C7 4.66 7 5.32 7 6 C7.9590625 6.433125 7.9590625 6.433125 8.9375 6.875 C11 8 11 8 12 10 C14.52733235 10.65555119 14.52733235 10.65555119 17 11 C17 11.99 17 12.98 17 14 C10.65495364 12.69845203 6.33265919 8.59261874 2 4 C0.734375 1.7421875 0.734375 1.7421875 0 0 Z " fill="#D05755" transform="translate(170,286)"/>
<path d="M0 0 C0.33 0.99 0.66 1.98 1 3 C-1.64 2.67 -4.28 2.34 -7 2 C-7 2.99 -7 3.98 -7 5 C-9.96175123 4.38722388 -11.38058783 3.74627478 -14 2 C-14 1.34 -14 0.68 -14 0 C-13.05125 0.020625 -12.1025 0.04125 -11.125 0.0625 C-0.74193548 -0.14516129 -0.74193548 -0.14516129 0 0 Z " fill="#E42723" transform="translate(319,218)"/>
<path d="M0 0 C0.33 0 0.66 0 1 0 C1.30359566 1.91175089 1.5667527 3.82995571 1.8125 5.75 C1.96332031 6.81734375 2.11414063 7.8846875 2.26953125 8.984375 C2.18058594 9.97953125 2.09164063 10.9746875 2 12 C0.35 13.32 -1.3 14.64 -3 16 C-3 11.05 -3 6.1 -3 1 C-2.67 1.66 -2.34 2.32 -2 3 C-1.34 3 -0.68 3 0 3 C0 2.01 0 1.02 0 0 Z " fill="#D32B28" transform="translate(358,349)"/>
<path d="M0 0 C1.86559476 -0.04723025 3.73338864 0.01682306 5.59765625 0.1015625 C6.25765625 0.7615625 6.91765625 1.4215625 7.59765625 2.1015625 C4.70118603 3.54979761 2.28600708 3.10675884 -0.94140625 2.98046875 C-2.89433594 2.90795898 -2.89433594 2.90795898 -4.88671875 2.83398438 C-6.26693179 2.77745856 -7.64714007 2.72081642 -9.02734375 2.6640625 C-10.41534594 2.61083957 -11.80336672 2.55809918 -13.19140625 2.50585938 C-16.59526516 2.37585087 -19.99885492 2.24087367 -23.40234375 2.1015625 C-23.40234375 1.7715625 -23.40234375 1.4415625 -23.40234375 1.1015625 C-20.06916772 0.93165006 -16.7357826 0.76623171 -13.40234375 0.6015625 C-12.46777344 0.55386719 -11.53320312 0.50617188 -10.5703125 0.45703125 C-7.04757555 0.28458958 -3.52375415 0.14897172 0 0 Z " fill="#D86D6C" transform="translate(288.40234375,352.8984375)"/>
<path d="M0 0 C-1.24735567 0.6509259 -2.49801832 1.29551669 -3.75 1.9375 C-4.44609375 2.29714844 -5.1421875 2.65679687 -5.859375 3.02734375 C-9.73393514 4.78786469 -13.00797902 5.11831607 -17.25 5.0625 C-18.14203125 5.05347656 -19.0340625 5.04445313 -19.953125 5.03515625 C-20.62859375 5.02355469 -21.3040625 5.01195312 -22 5 C-22.33 4.34 -22.66 3.68 -23 3 C-17.06 2.505 -17.06 2.505 -11 2 C-11 1.67 -11 1.34 -11 1 C-4.03571429 -1.27678571 -4.03571429 -1.27678571 0 0 Z " fill="#D35A5A" transform="translate(215,297)"/>
<path d="M0 0 C1.65 0 3.3 0 5 0 C1.12251139 3.22081715 -3.30176221 5.37485896 -7.75 7.6875 C-8.54277344 8.10322266 -9.33554688 8.51894531 -10.15234375 8.94726562 C-12.09994207 9.96799486 -14.04917449 10.9854562 -16 12 C-16.33 11.01 -16.66 10.02 -17 9 C-15.02 8.67 -13.04 8.34 -11 8 C-10.67 7.01 -10.34 6.02 -10 5 C-6.5065403 3.25327015 -3.93154432 2 0 2 C0 1.34 0 0.68 0 0 Z " fill="#CE5F60" transform="translate(241,208)"/>
<path d="M0 0 C-2 3 -2 3 -4.20703125 3.51171875 C-5.06683594 3.56972656 -5.92664063 3.62773437 -6.8125 3.6875 C-7.66457031 3.75324219 -8.51664062 3.81898438 -9.39453125 3.88671875 C-11.93369789 3.9971173 -14.45880316 4.02281146 -17 4 C-17 4.66 -17 5.32 -17 6 C-18.65 5.67 -20.3 5.34 -22 5 C-18.47893171 3.05460977 -14.8524463 1.94293181 -11 0.8125 C-9.783125 0.44769531 -8.56625 0.08289063 -7.3125 -0.29296875 C-4.27118248 -0.94211789 -2.83488355 -1.11269179 0 0 Z " fill="#CD4244" transform="translate(342,219)"/>
<path d="M0 0 C-0.23046875 1.89453125 -0.23046875 1.89453125 -1 4 C-2.92578125 5.01171875 -2.92578125 5.01171875 -5.3125 5.6875 C-6.09238281 5.91824219 -6.87226563 6.14898437 -7.67578125 6.38671875 C-8.82626953 6.69029297 -8.82626953 6.69029297 -10 7 C-10.71542969 7.23332031 -11.43085938 7.46664062 -12.16796875 7.70703125 C-12.77253906 7.80371094 -13.37710937 7.90039062 -14 8 C-14.66 7.34 -15.32 6.68 -16 6 C-13.7101766 4.9955866 -11.4183401 3.99632388 -9.125 3 C-8.14853516 2.57074219 -8.14853516 2.57074219 -7.15234375 2.1328125 C-2.2265625 0 -2.2265625 0 0 0 Z " fill="#CE5355" transform="translate(378,174)"/>
<path d="M0 0 C1.50560497 2.85410334 2.63216796 5.68124642 3.625 8.75 C3.88539063 9.54921875 4.14578125 10.3484375 4.4140625 11.171875 C4.60742188 11.77515625 4.80078125 12.3784375 5 13 C0.18550592 12.51855059 -2.60171741 12.1991413 -7 10 C-4.03 10 -1.06 10 2 10 C1.67 9.01 1.34 8.02 1 7 C0.34 7 -0.32 7 -1 7 C-0.67 4.69 -0.34 2.38 0 0 Z " fill="#CB6262" transform="translate(376,374)"/>
<path d="M0 0 C-0.99 0.495 -0.99 0.495 -2 1 C-1.67 1.99 -1.34 2.98 -1 4 C-2.62463842 4.05395478 -4.24978541 4.09277195 -5.875 4.125 C-6.77992188 4.14820313 -7.68484375 4.17140625 -8.6171875 4.1953125 C-11 4 -11 4 -13 2 C-9.16001987 -2.17389144 -5.07563763 -0.9001665 0 0 Z " fill="#BA5A5C" transform="translate(336,371)"/>
<path d="M0 0 C2.64 0.66 5.28 1.32 8 2 C8 2.33 8 2.66 8 3 C4.80455998 3.50172305 1.60837745 3.99673344 -1.58984375 4.48046875 C-3.56345014 4.78114418 -5.53577986 5.09110765 -7.50390625 5.42578125 C-11.46066514 6.04895201 -13.54319153 5.9666744 -17 4 C-15.10507994 3.66151348 -13.20901534 3.32943089 -11.3125 3 C-9.72888672 2.7215625 -9.72888672 2.7215625 -8.11328125 2.4375 C-5.35095938 2.04931926 -2.78257957 1.91740024 0 2 C0 1.34 0 0.68 0 0 Z " fill="#CA4B49" transform="translate(167,372)"/>
<path d="M0 0 C2 4 2 4 2 8 C4.31 8 6.62 8 9 8 C9 7.34 9 6.68 9 6 C10.32 6.33 11.64 6.66 13 7 C8.25 11.875 8.25 11.875 6 13 C6 12.34 6 11.68 6 11 C4.35 11 2.7 11 1 11 C0.67 7.37 0.34 3.74 0 0 Z " fill="#CA2D2E" transform="translate(146,354)"/>
<path d="M0 0 C1.67542976 0.28604898 3.34385343 0.61781233 5 1 C5.33 1.99 5.66 2.98 6 4 C3.03 3.505 3.03 3.505 0 3 C0 4.32 0 5.64 0 7 C-2.64 7 -5.28 7 -8 7 C-7.67 5.68 -7.34 4.36 -7 3 C-7 3.66 -7 4.32 -7 5 C-5.35 5 -3.7 5 -2 5 C-1.855625 4.360625 -1.71125 3.72125 -1.5625 3.0625 C-1 1 -1 1 0 0 Z " fill="#C53837" transform="translate(233,254)"/>
<path d="M0 0 C2.20002421 0.83550538 3.88877443 1.84084826 5.796875 3.21484375 C6.41046875 3.64667969 7.0240625 4.07851563 7.65625 4.5234375 C8.34460938 5.14412109 8.34460938 5.14412109 9.046875 5.77734375 C9.046875 6.43734375 9.046875 7.09734375 9.046875 7.77734375 C5.2865765 7.19626743 2.51652468 6.12534879 -0.765625 4.21484375 C-1.55582031 3.75980469 -2.34601563 3.30476563 -3.16015625 2.8359375 C-3.75183594 2.48660156 -4.34351563 2.13726562 -4.953125 1.77734375 C-1.953125 -0.22265625 -1.953125 -0.22265625 0 0 Z " fill="#A7494B" transform="translate(347.953125,253.22265625)"/>
<path d="M0 0 C-3.10420644 2.06947096 -6.0318675 3.32446144 -9.5 4.6875 C-10.6446875 5.14511719 -11.789375 5.60273438 -12.96875 6.07421875 C-16 7 -16 7 -19 6 C-18.34 4.68 -17.68 3.36 -17 2 C-14.69 2.33 -12.38 2.66 -10 3 C-10 2.34 -10 1.68 -10 1 C-6.61981469 -0.04005702 -3.5219721 -0.08004482 0 0 Z " fill="#D1504F" transform="translate(373,202)"/>
<path d="M0 0 C1.65 0.33 3.3 0.66 5 1 C4.01 1.33 3.02 1.66 2 2 C0.78130071 4.50447516 0.78130071 4.50447516 0 7 C-1.65 7 -3.3 7 -5 7 C-5.66 5.68 -6.32 4.36 -7 3 C-8.65 3 -10.3 3 -12 3 C-12 2.67 -12 2.34 -12 2 C-10.02 2 -8.04 2 -6 2 C-6 2.66 -6 3.32 -6 4 C-4.35 4 -2.7 4 -1 4 C-0.67 2.68 -0.34 1.36 0 0 Z " fill="#D05F5E" transform="translate(238,279)"/>
<path d="M0 0 C0.69839668 3.28945282 1.3818522 6.58183274 2.0625 9.875 C2.26166016 10.81214844 2.46082031 11.74929688 2.66601562 12.71484375 C2.84970703 13.61074219 3.03339844 14.50664062 3.22265625 15.4296875 C3.48187866 16.67081299 3.48187866 16.67081299 3.74633789 17.93701172 C4 20 4 20 3 22 C0.73524435 16.17634262 -0.06548814 10.1439184 -1 4 C-3.31 3.34 -5.62 2.68 -8 2 C-4.91190305 0.23537317 -3.76687864 0 0 0 Z " fill="#C84643" transform="translate(140,338)"/>
<path d="M0 0 C1.32 0.66 2.64 1.32 4 2 C4 1.34 4 0.68 4 0 C4.99 0.33 5.98 0.66 7 1 C2.4943313 4.26660981 -1.735171 6.18454172 -7 8 C-7 7.01 -7 6.02 -7 5 C-5.46875 3.61328125 -5.46875 3.61328125 -3.5 2.3125 C-2.8503125 1.87550781 -2.200625 1.43851563 -1.53125 0.98828125 C-1.0259375 0.66214844 -0.520625 0.33601562 0 0 Z " fill="#A95D62" transform="translate(151,253)"/>
<path d="M0 0 C0.66 1.32 1.32 2.64 2 4 C1.67 4.66 1.34 5.32 1 6 C0.113125 5.79375 -0.77375 5.5875 -1.6875 5.375 C-5.2252711 4.97449761 -6.86632967 5.43316484 -10 7 C-10.66 6.34 -11.32 5.68 -12 5 C-8.04 3.35 -4.08 1.7 0 0 Z " fill="#D9403D" transform="translate(356,183)"/>
<path d="M0 0 C1.16208984 0.07831055 1.16208984 0.07831055 2.34765625 0.15820312 C4.23224487 0.28616902 6.11620371 0.42335596 8 0.5625 C8 0.8925 8 1.2225 8 1.5625 C-0.49208584 2.29848077 -8.53095523 2.85776567 -17 1.5625 C-17 1.2325 -17 0.9025 -17 0.5625 C-11.18784382 -0.3291376 -5.853664 -0.44130742 0 0 Z " fill="#D55351" transform="translate(304,312.4375)"/>
<path d="M0 0 C0.33 0 0.66 0 1 0 C1.36263859 5.8022175 0.25684543 9.63999211 -2 15 C-2.33 15 -2.66 15 -3 15 C-3.19477739 13.37585622 -3.38059458 11.75063577 -3.5625 10.125 C-3.66691406 9.22007812 -3.77132813 8.31515625 -3.87890625 7.3828125 C-4 5 -4 5 -3 3 C-2.34 3 -1.68 3 -1 3 C-0.67 2.01 -0.34 1.02 0 0 Z " fill="#CF4440" transform="translate(389,173)"/>
<path d="M0 0 C2.31 0 4.62 0 7 0 C6.67 1.32 6.34 2.64 6 4 C6.99 4.33 7.98 4.66 9 5 C9 5.33 9 5.66 9 6 C6.36 6 3.72 6 1 6 C0.67 4.02 0.34 2.04 0 0 Z " fill="#DE2826" transform="translate(304,229)"/>
<path d="M0 0 C1.65 0 3.3 0 5 0 C5.33 1.32 5.66 2.64 6 4 C7.32 4.33 8.64 4.66 10 5 C10 5.66 10 6.32 10 7 C10.66 7.66 11.32 8.32 12 9 C11.01 9.495 11.01 9.495 10 10 C8.70450101 8.90033225 7.41373929 7.79508199 6.125 6.6875 C5.40570313 6.07261719 4.68640625 5.45773438 3.9453125 4.82421875 C2 3 2 3 0 0 Z " fill="#CA393A" transform="translate(116,192)"/>
<path d="M0 0 C6.20970773 -0.33266291 10.28264895 0.54970669 16 3 C15.67 3.66 15.34 4.32 15 5 C10.05 4.01 5.1 3.02 0 2 C0 1.34 0 0.68 0 0 Z " fill="#CE5050" transform="translate(347,377)"/>
<path d="M0 0 C0.66 0.33 1.32 0.66 2 1 C1.34 4.3 0.68 7.6 0 11 C-0.33 9.68 -0.66 8.36 -1 7 C-2.32 7.33 -3.64 7.66 -5 8 C-3.8141763 4.62496331 -2.72426311 2.35277269 0 0 Z " fill="#D63C3B" transform="translate(175,249)"/>
<path d="M0 0 C0.66 0 1.32 0 2 0 C2 0.66 2 1.32 2 2 C2.66 2.33 3.32 2.66 4 3 C-2 6 -8 9 -14 12 C-14 11.01 -14 10.02 -14 9 C-13.01 9 -12.02 9 -11 9 C-11 8.34 -11 7.68 -11 7 C-9.75539217 6.32332002 -8.50403104 5.65905281 -7.25 5 C-6.20585937 4.443125 -6.20585937 4.443125 -5.140625 3.875 C-3 3 -3 3 1 3 C0.67 2.01 0.34 1.02 0 0 Z " fill="#CB504F" transform="translate(219,218)"/>
<path d="M0 0 C1.32 0 2.64 0 4 0 C4 0.99 4 1.98 4 3 C2.06640625 4.60546875 2.06640625 4.60546875 -0.4375 6.1875 C-1.26121094 6.71730469 -2.08492187 7.24710938 -2.93359375 7.79296875 C-5 9 -5 9 -6 9 C-6 7.35 -6 5.7 -6 4 C-3.525 4.495 -3.525 4.495 -1 5 C-0.67 3.35 -0.34 1.7 0 0 Z " fill="#C94849" transform="translate(183,225)"/>
<path d="M0 0 C5.63098876 3.00064027 10.88084541 6.18786361 16 10 C13.50907189 11.24546405 12.58919267 10.7767578 10 10 C10 9.34 10 8.68 10 8 C8.68 7.67 7.36 7.34 6 7 C6 6.34 6 5.68 6 5 C4.68 4.67 3.36 4.34 2 4 C2 3.34 2 2.68 2 2 C1.34 2 0.68 2 0 2 C0 1.34 0 0.68 0 0 Z " fill="#D3716E" transform="translate(270,200)"/>
<path d="M0 0 C0 1.65 0 3.3 0 5 C-0.66 5 -1.32 5 -2 5 C-2 6.65 -2 8.3 -2 10 C-2.99 10.33 -3.98 10.66 -5 11 C-4.8864371 9.35333797 -4.75882619 7.70763918 -4.625 6.0625 C-4.55539063 5.14597656 -4.48578125 4.22945313 -4.4140625 3.28515625 C-4.27742187 2.53105469 -4.14078125 1.77695312 -4 1 C-2 0 -2 0 0 0 Z " fill="#E42A25" transform="translate(174,256)"/>
<path d="M0 0 C0.66 1.32 1.32 2.64 2 4 C0.625 6 0.625 6 -1 8 C-1.66 8 -2.32 8 -3 8 C-3 8.66 -3 9.32 -3 10 C-4.98 10.99 -6.96 11.98 -9 13 C-9.33 11.68 -9.66 10.36 -10 9 C-7.36 8.34 -4.72 7.68 -2 7 C-2.33 6.01 -2.66 5.02 -3 4 C-2.01 4 -1.02 4 0 4 C0 2.68 0 1.36 0 0 Z " fill="#CE4345" transform="translate(364,218)"/>
<path d="M0 0 C3.5219721 -0.08004482 6.61981469 -0.04005702 10 1 C10 1.66 10 2.32 10 3 C12.64 2.67 15.28 2.34 18 2 C17.67 2.66 17.34 3.32 17 4 C10.90218999 4.22084624 5.78357065 4.01167675 0 2 C0 1.34 0 0.68 0 0 Z " fill="#DA8282" transform="translate(146,366)"/>
<path d="M0 0 C0.33 0.66 0.66 1.32 1 2 C0.34 2 -0.32 2 -1 2 C-1 3.98 -1 5.96 -1 8 C-0.01 7.67 0.98 7.34 2 7 C2.33 7.66 2.66 8.32 3 9 C2.21625 9.309375 1.4325 9.61875 0.625 9.9375 C-1.92330128 10.92875038 -1.92330128 10.92875038 -4 12 C-3.979375 11.2575 -3.95875 10.515 -3.9375 9.75 C-3.99328688 7.29537721 -4.3069904 5.33890739 -5 3 C-3.35 2.01 -1.7 1.02 0 0 Z " fill="#DA3F3C" transform="translate(229,200)"/>
<path d="M0 0 C3.69367933 0.72267639 7.11293697 0.62626378 10.875 0.5625 C10.545 1.5525 10.215 2.5425 9.875 3.5625 C9.03195312 3.28599609 9.03195312 3.28599609 8.171875 3.00390625 C5.49239626 2.48897241 3.75953689 2.84136578 1.125 3.5 C0.32578125 3.69464844 -0.4734375 3.88929688 -1.296875 4.08984375 C-1.90015625 4.24582031 -2.5034375 4.40179688 -3.125 4.5625 C-3.455 3.2425 -3.785 1.9225 -4.125 0.5625 C-2.125 -0.4375 -2.125 -0.4375 0 0 Z " fill="#D16F71" transform="translate(324.125,359.4375)"/>
<path d="M0 0 C0.66 0 1.32 0 2 0 C0.125 4.75 0.125 4.75 -1 7 C-1.66 7 -2.32 7 -3 7 C-3.66 8.32 -4.32 9.64 -5 11 C-5.66 11 -6.32 11 -7 11 C-7 9.35 -7 7.7 -7 6 C-5.35 5.67 -3.7 5.34 -2 5 C-2 4.34 -2 3.68 -2 3 C-1.34 3 -0.68 3 0 3 C0 2.01 0 1.02 0 0 Z " fill="#D15758" transform="translate(223,284)"/>
<path d="M0 0 C1.41750563 0.11509661 2.83401169 0.24253658 4.25 0.375 C5.03890625 0.44460937 5.8278125 0.51421875 6.640625 0.5859375 C9.085877 1.01507113 10.84836903 1.78600638 13 3 C10.36 3.66 7.72 4.32 5 5 C5 4.34 5 3.68 5 3 C4.01 3 3.02 3 2 3 C2 2.34 2 1.68 2 1 C1.34 0.67 0.68 0.34 0 0 Z " fill="#D84F50" transform="translate(149,216)"/>
<path d="M0 0 C4.47238653 1.41807378 8.71146306 3.11304374 13 5 C12.34 5.66 11.68 6.32 11 7 C8.03 6.01 5.06 5.02 2 4 C2 3.34 2 2.68 2 2 C1.34 2 0.68 2 0 2 C0 1.34 0 0.68 0 0 Z " fill="#D35453" transform="translate(129,177)"/>
<path d="M0 0 C1.03769531 -0.01417969 2.07539063 -0.02835937 3.14453125 -0.04296875 C6.22520533 0.19035573 8.40511592 0.88631114 11.1875 2.1875 C11.1875 2.5175 11.1875 2.8475 11.1875 3.1875 C9.270912 3.21462153 7.3542127 3.23395097 5.4375 3.25 C3.83648437 3.26740234 3.83648437 3.26740234 2.203125 3.28515625 C-1.4972653 3.16532496 -4.3189665 2.35201117 -7.8125 1.1875 C-5.13017173 -0.15366414 -2.99417741 0.01845979 0 0 Z " fill="#C35E60" transform="translate(170.8125,368.8125)"/>
<path d="M0 0 C0.33 0 0.66 0 1 0 C1 2.97 1 5.94 1 9 C1.66 9 2.32 9 3 9 C2.34 10.32 1.68 11.64 1 13 C-1.31 13 -3.62 13 -6 13 C-5.175 12.319375 -4.35 11.63875 -3.5 10.9375 C-0.42749768 7.32730978 -0.64587007 5.60368906 -1 1 C-0.67 0.67 -0.34 0.34 0 0 Z " fill="#CB3A3F" transform="translate(194,266)"/>
<path d="M0 0 C0.66 0.33 1.32 0.66 2 1 C1.09515208 2.15518918 0.1755794 3.29885406 -0.75 4.4375 C-1.26046875 5.07558594 -1.7709375 5.71367187 -2.296875 6.37109375 C-4.22213739 8.21245709 -5.35263407 8.79014782 -8 9 C-8.66 8.34 -9.32 7.68 -10 7 C-6.7 4.69 -3.4 2.38 0 0 Z " fill="#D04E4F" transform="translate(202,218)"/>
<path d="M0 0 C4.77609498 1.64178265 8.79382904 4.26546702 13 7 C9.15146198 8.28284601 7.46904797 7.47918865 3.80859375 6.03515625 C2 5 2 5 0.5 2.3125 C0.335 1.549375 0.17 0.78625 0 0 Z " fill="#CD504B" transform="translate(317,233)"/>
<path d="M0 0 C-1.25125384 3.75376152 -2.5652404 4.24073289 -6 6 C-6.66 6 -7.32 6 -8 6 C-7.75 3.625 -7.75 3.625 -7 1 C-4.12732844 -1.10662581 -3.46720491 -1.15573497 0 0 Z " fill="#E22928" transform="translate(186,235)"/>
<path d="M0 0 C2 0 2 0 3.5 1.375 C3.995 1.91125 4.49 2.4475 5 3 C5.66 3.66 6.32 4.32 7 5 C0.9453125 5.9765625 0.9453125 5.9765625 -1 6 C-1.66 5.34 -2.32 4.68 -3 4 C-2.67 3.34 -2.34 2.68 -2 2 C-1.34 2 -0.68 2 0 2 C0 1.34 0 0.68 0 0 Z " fill="#DE2827" transform="translate(189,228)"/>
<path d="M0 0 C6.19518473 0.41588046 11.26689311 1.60251894 17 4 C16.67 4.66 16.34 5.32 16 6 C10.63904723 4.41078475 5.29156027 2.81027062 0 1 C0 0.67 0 0.34 0 0 Z " fill="#CF585A" transform="translate(127,202)"/>
<path d="M0 0 C1.62580966 0.11398665 3.25067157 0.24155659 4.875 0.375 C5.77992187 0.44460938 6.68484375 0.51421875 7.6171875 0.5859375 C10 1 10 1 12 3 C12 3.99 12 4.98 12 6 C7.76570244 4.68938409 3.92592596 3.05643741 0 1 C0 0.67 0 0.34 0 0 Z " fill="#CE4C4D" transform="translate(107,352)"/>
<path d="M0 0 C0.70125 0.4125 1.4025 0.825 2.125 1.25 C-0.875 2.25 -0.875 2.25 -4.875 2.25 C-4.875 2.91 -4.875 3.57 -4.875 4.25 C-5.535 4.25 -6.195 4.25 -6.875 4.25 C-6.875 4.91 -6.875 5.57 -6.875 6.25 C-8.855 6.58 -10.835 6.91 -12.875 7.25 C-4.945 -1.29 -4.945 -1.29 0 0 Z " fill="#C95B57" transform="translate(251.875,186.75)"/>
<path d="M0 0 C0.66 0 1.32 0 2 0 C2 0.99 2 1.98 2 3 C3.32 3.66 4.64 4.32 6 5 C5.67 6.98 5.34 8.96 5 11 C0 4.63636364 0 4.63636364 0 0 Z " fill="#D24D50" transform="translate(111,181)"/>
<path d="M0 0 C1.49080078 0.29197266 1.49080078 0.29197266 3.01171875 0.58984375 C4.15060547 0.82380859 4.15060547 0.82380859 5.3125 1.0625 C5.3125 1.7225 5.3125 2.3825 5.3125 3.0625 C3.35348546 2.94867347 1.3952662 2.82108875 -0.5625 2.6875 C-1.65304687 2.61789062 -2.74359375 2.54828125 -3.8671875 2.4765625 C-6.6875 2.0625 -6.6875 2.0625 -8.6875 0.0625 C-5.21237282 -1.09587573 -3.55079714 -0.71015943 0 0 Z " fill="#C83D3D" transform="translate(336.6875,316.9375)"/>
<path d="M0 0 C6.27 0 12.54 0 19 0 C18.67 1.32 18.34 2.64 18 4 C17.01 4.495 17.01 4.495 16 5 C16 3.68 16 2.36 16 1 C10.72 1 5.44 1 0 1 C0 0.67 0 0.34 0 0 Z " fill="#CE5A5C" transform="translate(314,268)"/>
<path d="M0 0 C1.46067199 0.45082469 2.91848032 0.91093537 4.375 1.375 C5.18710938 1.63023437 5.99921875 1.88546875 6.8359375 2.1484375 C9 3 9 3 11 5 C9.58297487 4.85769192 8.1663904 4.71099254 6.75 4.5625 C5.56664062 4.44068359 5.56664062 4.44068359 4.359375 4.31640625 C2.17635361 4.02365007 0.1226818 3.57935581 -2 3 C-1 1 -1 1 0 0 Z " fill="#D25B5C" transform="translate(186,202)"/>
<path d="M0 0 C4.35535069 1.16142685 6.64619703 2.07699505 9 6 C6.36 6.33 3.72 6.66 1 7 C1.20625 6.401875 1.4125 5.80375 1.625 5.1875 C2.30671915 2.71549154 2.30671915 2.71549154 0 0 Z " fill="#DF5451" transform="translate(332,369)"/>
<path d="M0 0 C6.41688675 -0.10349817 12.62694402 0.25492456 19 1 C19 1.33 19 1.66 19 2 C14.05 2.33 9.1 2.66 4 3 C4 2.34 4 1.68 4 1 C2.68 0.67 1.36 0.34 0 0 Z " fill="#D65E5F" transform="translate(185,355)"/>
<path d="M0 0 C2.625 0.9375 2.625 0.9375 5 2 C3.25 3.5625 3.25 3.5625 1 5 C-1.25 4.6875 -1.25 4.6875 -3 4 C-3 4.66 -3 5.32 -3 6 C-3.99 5.67 -4.98 5.34 -6 5 C-2.25 1.125 -2.25 1.125 0 0 Z " fill="#C54846" transform="translate(158,249)"/>
<path d="M0 0 C2.31 0.66 4.62 1.32 7 2 C7 2.33 7 2.66 7 3 C5.02 3 3.04 3 1 3 C1 5.97 1 8.94 1 12 C0.67 12 0.34 12 0 12 C-0.19401633 10.18818595 -0.38004375 8.37551468 -0.5625 6.5625 C-0.66691406 5.55316406 -0.77132812 4.54382813 -0.87890625 3.50390625 C-0.91886719 2.67761719 -0.95882812 1.85132813 -1 1 C-0.67 0.67 -0.34 0.34 0 0 Z " fill="#C75F57" transform="translate(110,169)"/>
<path d="M0 0 C0.78890625 0.22042969 1.5778125 0.44085938 2.390625 0.66796875 C3.18984375 0.88066406 3.9890625 1.09335937 4.8125 1.3125 C5.71742188 1.58126953 5.71742188 1.58126953 6.640625 1.85546875 C6.640625 2.51546875 6.640625 3.17546875 6.640625 3.85546875 C2.350625 3.52546875 -1.939375 3.19546875 -6.359375 2.85546875 C-2.359375 -0.14453125 -2.359375 -0.14453125 0 0 Z " fill="#D15455" transform="translate(313.359375,355.14453125)"/>
<path d="M0 0 C1.98 0.66 3.96 1.32 6 2 C6 2.99 6 3.98 6 5 C3.69 4.67 1.38 4.34 -1 4 C-0.67 2.68 -0.34 1.36 0 0 Z " fill="#C94D4B" transform="translate(340,249)"/>
<path d="M0 0 C-1.0625 1.5 -1.0625 1.5 -3 3 C-7.24881273 3.3862557 -10.35969312 3.3297964 -14 1 C-9.27616037 0.34843591 -4.78025483 -0.11950637 0 0 Z " fill="#D05C5D" transform="translate(177,234)"/>
<path d="M0 0 C0.99 0 1.98 0 3 0 C3.66 1.65 4.32 3.3 5 5 C5.99 5 6.98 5 8 5 C8 5.66 8 6.32 8 7 C5.36 6.34 2.72 5.68 0 5 C0 3.35 0 1.7 0 0 Z " fill="#E22928" transform="translate(314,233)"/>
<path d="M0 0 C0.66 0 1.32 0 2 0 C2 0.66 2 1.32 2 2 C3.216875 1.95875 4.43375 1.9175 5.6875 1.875 C9.21894127 1.86245492 11.80003566 2.40001783 15 4 C15 4.33 15 4.66 15 5 C13.02 5.33 11.04 5.66 9 6 C8.67 5.34 8.34 4.68 8 4 C5.67843403 3.59270772 3.3431213 3.25561323 1 3 C0.67 2.01 0.34 1.02 0 0 Z " fill="#D34647" transform="translate(162,193)"/>
<path d="M0 0 C0.33 0 0.66 0 1 0 C1.33 3.96 1.66 7.92 2 12 C0.02 12 -1.96 12 -4 12 C-3.67 11.01 -3.34 10.02 -3 9 C-2.01 9 -1.02 9 0 9 C0 6.03 0 3.06 0 0 Z " fill="#B96B6F" transform="translate(186,361)"/>
<path d="M0 0 C0.99 0 1.98 0 3 0 C2.67 3.3 2.34 6.6 2 10 C0 8 0 8 -0.1953125 6.0546875 C-0.13020833 4.03645833 -0.06510417 2.01822917 0 0 Z " fill="#C9494D" transform="translate(359,322)"/>
<path d="M0 0 C0 0.66 0 1.32 0 2 C-0.99 2.33 -1.98 2.66 -3 3 C-3.66 3.66 -4.32 4.32 -5 5 C-7.72869407 4.96712417 -10.2966618 4.43602229 -13 4 C-9.06512611 1.79647062 -4.5498921 0 0 0 Z " fill="#CE5B59" transform="translate(358,213)"/>
<path d="M0 0 C-0.33 2.64 -0.66 5.28 -1 8 C-1.33 8 -1.66 8 -2 8 C-2 6.35 -2 4.7 -2 3 C-4.31 3 -6.62 3 -9 3 C-5.87496336 0.91664224 -3.72863529 0 0 0 Z " fill="#C86868" transform="translate(369,210)"/>
<path d="M0 0 C4.71403788 0.47939368 8.66579301 0.96834048 13 3 C13 3.66 13 4.32 13 5 C8.62297367 3.77443263 4.30322683 2.46939453 0 1 C0 0.67 0 0.34 0 0 Z " fill="#CB514A" transform="translate(147,209)"/>
<path d="M0 0 C-4.75 4 -4.75 4 -7 4 C-7 3.34 -7 2.68 -7 2 C-8.32 1.67 -9.64 1.34 -11 1 C-6.87831311 -0.62950412 -4.29299643 -1.26264601 0 0 Z " fill="#DE3D41" transform="translate(211,242)"/>
<path d="M0 0 C4.3890815 0.51035831 7.33708062 1.52214277 11 4 C10.67 4.66 10.34 5.32 10 6 C5.05 4.02 5.05 4.02 0 2 C0 1.34 0 0.68 0 0 Z " fill="#CF4D4F" transform="translate(247,204)"/>
<path d="M0 0 C2.6875 0.3125 2.6875 0.3125 5 1 C5.33 1.99 5.66 2.98 6 4 C3.03 3.67 0.06 3.34 -3 3 C-2.01 2.01 -1.02 1.02 0 0 Z " fill="#A71D20" transform="translate(164,365)"/>
<path d="M0 0 C3.3 0 6.6 0 10 0 C9.01 0.33 8.02 0.66 7 1 C6.67 1.66 6.34 2.32 6 3 C3.9375 3.625 3.9375 3.625 2 4 C1.34 2.68 0.68 1.36 0 0 Z " fill="#CD2827" transform="translate(303,314)"/>
<path d="M0 0 C0 1.32 0 2.64 0 4 C-2.91482778 4.80967438 -4.46113217 5.21845993 -7.3125 4.0625 C-7.869375 3.711875 -8.42625 3.36125 -9 3 C-2.25 0 -2.25 0 0 0 Z " fill="#D24F4D" transform="translate(323,198)"/>
<path d="M0 0 C1.48280196 0.78483659 2.9611498 1.57809334 4.4375 2.375 C5.67306641 3.03628906 5.67306641 3.03628906 6.93359375 3.7109375 C9 5 9 5 10 7 C7.03 6.505 7.03 6.505 4 6 C3.67 5.01 3.34 4.02 3 3 C2.01 2.67 1.02 2.34 0 2 C0 1.34 0 0.68 0 0 Z " fill="#D37B79" transform="translate(254,189)"/>
<path d="M0 0 C2.125 0.9375 2.125 0.9375 4 2 C2.37604003 2.50336767 0.75079459 3.00258976 -0.875 3.5 C-1.77992188 3.7784375 -2.68484375 4.056875 -3.6171875 4.34375 C-6 5 -6 5 -8 5 C-8 4.34 -8 3.68 -8 3 C-7.05125 2.690625 -6.1025 2.38125 -5.125 2.0625 C-2.13919592 1.12605258 -2.13919592 1.12605258 0 0 Z " fill="#CA5652" transform="translate(146,377)"/>
<path d="M0 0 C0.33 0 0.66 0 1 0 C1 2.64 1 5.28 1 8 C0.01 8 -0.98 8 -2 8 C-2.33 5.69 -2.66 3.38 -3 1 C-2.67 1.66 -2.34 2.32 -2 3 C-1.34 3 -0.68 3 0 3 C0 2.01 0 1.02 0 0 Z " fill="#D34B48" transform="translate(358,349)"/>
<path d="M0 0 C4.455 2.97 4.455 2.97 9 6 C8.34 6.66 7.68 7.32 7 8 C7 7.34 7 6.68 7 6 C6.21625 5.938125 5.4325 5.87625 4.625 5.8125 C3.75875 5.544375 2.8925 5.27625 2 5 C1.34 3.35 0.68 1.7 0 0 Z " fill="#D16262" transform="translate(291,214)"/>
<path d="M0 0 C2.31 0 4.62 0 7 0 C5 3 5 3 3.0546875 3.51171875 C2.33539063 3.56972656 1.61609375 3.62773437 0.875 3.6875 C-1.043125 3.8421875 -1.043125 3.8421875 -3 4 C-2.34 3.67 -1.68 3.34 -1 3 C-0.67 2.01 -0.34 1.02 0 0 Z " fill="#D47273" transform="translate(157,361)"/>
<path d="M0 0 C0.66 0.33 1.32 0.66 2 1 C2.75 4.4375 2.75 4.4375 3 8 C2.34 8.66 1.68 9.32 1 10 C0.63720544 8.71073008 0.28503302 7.41846728 -0.0625 6.125 C-0.35833984 5.04605469 -0.35833984 5.04605469 -0.66015625 3.9453125 C-1 2 -1 2 0 0 Z " fill="#D14D4E" transform="translate(168,275)"/>
<path d="M0 0 C-1.65 1.65 -3.3 3.3 -5 5 C-5.66 4.67 -6.32 4.34 -7 4 C-7 2.68 -7 1.36 -7 0 C-3.98968256 -0.93423645 -3.13349732 -1.04449911 0 0 Z " fill="#D3514F" transform="translate(185,263)"/>
<path d="M0 0 C1.65 0.33 3.3 0.66 5 1 C5.33 1.99 5.66 2.98 6 4 C3.36 3.67 0.72 3.34 -2 3 C-1.34 2.01 -0.68 1.02 0 0 Z " fill="#CA5358" transform="translate(233,254)"/>
<path d="M0 0 C1.32 0.66 2.64 1.32 4 2 C4 1.34 4 0.68 4 0 C4.99 0.33 5.98 0.66 7 1 C5.02 2.32 3.04 3.64 1 5 C0.34 4.67 -0.32 4.34 -1 4 C-1 1 -1 1 0 0 Z " fill="#C97574" transform="translate(151,253)"/>
<path d="M0 0 C1.98 0.99 3.96 1.98 6 3 C5.360625 3.103125 4.72125 3.20625 4.0625 3.3125 C3.381875 3.539375 2.70125 3.76625 2 4 C1.67 4.99 1.34 5.98 1 7 C0.01 6.67 -0.98 6.34 -2 6 C-1.67 5.38125 -1.34 4.7625 -1 4.125 C0.14193235 2.08981656 0.14193235 2.08981656 0 0 Z " fill="#DA6C6C" transform="translate(330,241)"/>
<path d="M0 0 C2.35171131 0.59861742 4.6859378 1.26924352 7 2 C7.33 2.66 7.66 3.32 8 4 C6.3125 4.75 6.3125 4.75 4 5 C1.25 3.0625 1.25 3.0625 -1 1 C-0.67 0.67 -0.34 0.34 0 0 Z " fill="#CD4C4D" transform="translate(321,241)"/>
<path d="M0 0 C0.33 0.66 0.66 1.32 1 2 C2.32 2 3.64 2 5 2 C5 3.32 5 4.64 5 6 C2.525 5.01 2.525 5.01 0 4 C0 3.34 0 2.68 0 2 C-0.66 1.67 -1.32 1.34 -2 1 C-1.34 0.67 -0.68 0.34 0 0 Z " fill="#E63B39" transform="translate(191,226)"/>
<path d="M0 0 C-1 3 -1 3 -3 5 C-6.125 4.625 -6.125 4.625 -9 4 C-3 0 -3 0 0 0 Z " fill="#D05051" transform="translate(332,194)"/>
<path d="M0 0 C3.63 0 7.26 0 11 0 C11 0.99 11 1.98 11 3 C9.35333797 2.8864371 7.70763918 2.75882619 6.0625 2.625 C5.14597656 2.55539062 4.22945313 2.48578125 3.28515625 2.4140625 C2.15400391 2.20910156 2.15400391 2.20910156 1 2 C0.67 1.34 0.34 0.68 0 0 Z " fill="#D26968" transform="translate(336,368)"/>
<path d="M0 0 C0.33 0 0.66 0 1 0 C1.33 2.64 1.66 5.28 2 8 C-0.86177057 9.43088528 -2.93375773 8.59991697 -6 8 C-6 7.67 -6 7.34 -6 7 C-4.35 6.67 -2.7 6.34 -1 6 C-0.67 4.02 -0.34 2.04 0 0 Z " fill="#DF6B6C" transform="translate(354,360)"/>
<path d="M0 0 C1.65 0 3.3 0 5 0 C5 0.66 5 1.32 5 2 C5.99 2.33 6.98 2.66 8 3 C4.37673261 4.2077558 3.35853631 3.54311128 0 2 C0 1.34 0 0.68 0 0 Z " fill="#D92C2A" transform="translate(106,349)"/>
<path d="M0 0 C0 0.99 0 1.98 0 3 C-2.9375 2.625 -2.9375 2.625 -6 2 C-6.33 1.34 -6.66 0.68 -7 0 C-4.3333581 -1.33332095 -2.83319697 -0.67102033 0 0 Z " fill="#D72E2F" transform="translate(254,189)"/>
<path d="M0 0 C-2.57089417 2.11180592 -4.63060567 3.66306057 -8 4 C-8.66 3.34 -9.32 2.68 -10 2 C-3.375 -1.125 -3.375 -1.125 0 0 Z " fill="#D25959" transform="translate(354,186)"/>
<path d="M0 0 C-0.33 1.32 -0.66 2.64 -1 4 C-2.32 4.33 -3.64 4.66 -5 5 C-5.33 4.01 -5.66 3.02 -6 2 C-2.25 0 -2.25 0 0 0 Z " fill="#D54142" transform="translate(378,174)"/>
<path d="M0 0 C2 3 2 3 1.625 5.1875 C1.41875 5.785625 1.2125 6.38375 1 7 C1.66 7.33 2.32 7.66 3 8 C1.35 8 -0.3 8 -2 8 C-1.34 5.36 -0.68 2.72 0 0 Z " fill="#D06B5F" transform="translate(121,379)"/>
<path d="M0 0 C2.64 0 5.28 0 8 0 C8 1.65 8 3.3 8 5 C7.01 4.34 6.02 3.68 5 3 C3.34450469 2.61500109 1.6777567 2.27206865 0 2 C0 1.34 0 0.68 0 0 Z " fill="#D15043" transform="translate(278,275)"/>
<path d="M0 0 C3.37503669 1.1858237 5.64722731 2.27573689 8 5 C7.01 5.33 6.02 5.66 5 6 C4.67 5.01 4.34 4.02 4 3 C2.68 3.33 1.36 3.66 0 4 C0 2.68 0 1.36 0 0 Z " fill="#D46060" transform="translate(300,221)"/>
<path d="M0 0 C-2.98646769 1.99097846 -5.59687262 2.94124926 -9 4 C-9 3.01 -9 2.02 -9 1 C-6.04335481 -0.4783226 -3.25770263 -0.06032783 0 0 Z " fill="#CE5253" transform="translate(329,218)"/>
<path d="M0 0 C1.32 0.33 2.64 0.66 4 1 C4 1.66 4 2.32 4 3 C4.66 3.66 5.32 4.32 6 5 C5.01 5.495 5.01 5.495 4 6 C2 4.6875 2 4.6875 0 3 C0 2.01 0 1.02 0 0 Z " fill="#D34849" transform="translate(122,196)"/>
<path d="M0 0 C1.64826111 2.96687001 2.44271087 5.65626525 3 9 C1.68 8.34 0.36 7.68 -1 7 C-0.67 4.69 -0.34 2.38 0 0 Z " fill="#D55A5A" transform="translate(376,374)"/>
<path d="M0 0 C1.98 0 3.96 0 6 0 C5.01 0.495 5.01 0.495 4 1 C4.33 1.99 4.66 2.98 5 4 C3.35 4 1.7 4 0 4 C0 2.68 0 1.36 0 0 Z " fill="#B62D2C" transform="translate(330,371)"/>
<path d="M0 0 C2.64 0 5.28 0 8 0 C7.01 1.485 7.01 1.485 6 3 C3.5625 2.625 3.5625 2.625 1 2 C0.67 1.34 0.34 0.68 0 0 Z " fill="#C14844" transform="translate(269,279)"/>
<path d="M0 0 C3.81538462 2.46153846 3.81538462 2.46153846 4.75 5.1875 C4.8325 5.785625 4.915 6.38375 5 7 C4.34 7 3.68 7 3 7 C3 6.34 3 5.68 3 5 C2.01 5 1.02 5 0 5 C0 3.35 0 1.7 0 0 Z " fill="#C84B48" transform="translate(220,250)"/>
<path d="M0 0 C2.31 0.33 4.62 0.66 7 1 C7 2.32 7 3.64 7 5 C4.11562221 3.70700306 2.12780579 2.34058637 0 0 Z " fill="#CF5454" transform="translate(316,229)"/>
<path d="M0 0 C-2.97 0.66 -5.94 1.32 -9 2 C-9 1.34 -9 0.68 -9 0 C-4.5 -2.25 -4.5 -2.25 0 0 Z " fill="#D35B52" transform="translate(346,213)"/>
</svg>
